<svg width="18" height="18" viewBox="0 0 18 18" fill="none" xmlns="http://www.w3.org/2000/svg">
<path d="M11.316 0.899994H6.68405C6.60923 0.901039 6.53781 0.931358 6.48509 0.984449C6.43238 1.03754 6.40256 1.10918 6.40205 1.18399C6.30805 5.60399 4.03205 9.80099 0.115046 12.773C0.0548859 12.8184 0.0147692 12.8855 0.00319592 12.9599C-0.00837741 13.0344 0.00950198 13.1105 0.0530459 13.172L2.76305 16.98C2.85605 17.11 3.03505 17.14 3.16205 17.044C5.61105 15.198 7.58205 12.971 9.00005 10.502C10.419 12.971 12.389 15.198 14.838 17.044C14.8681 17.0666 14.9025 17.0829 14.939 17.0919C14.9755 17.1009 15.0135 17.1025 15.0506 17.0965C15.0878 17.0906 15.1234 17.0772 15.1552 17.0571C15.1871 17.0371 15.2146 17.0109 15.236 16.98L17.946 13.172C17.99 13.1105 18.0082 13.0343 17.9968 12.9596C17.9854 12.8849 17.9453 12.8176 17.885 12.772C13.968 9.80099 11.692 5.60499 11.598 1.18399C11.5978 1.1091 11.5681 1.03731 11.5153 0.984166C11.4625 0.931019 11.3909 0.900782 11.316 0.899994Z" fill="#FF875B"/>
</svg>
