<svg width="233" height="275" viewBox="0 0 233 275" fill="none" xmlns="http://www.w3.org/2000/svg">
<rect width="233" height="275" rx="4" fill="#081E36"/>
<path d="M199 167C199 148.473 192.726 130.492 181.2 115.986L117.931 166.261C118.098 166.471 118.189 166.732 118.189 167H199Z" fill="#849573" stroke="white"/>
<path d="M181.199 115.987C168.177 99.598 149.38 88.8101 128.66 85.8335C107.94 82.857 86.8662 87.917 69.7568 99.9769L116.315 166.029C116.563 165.854 116.868 165.781 117.168 165.824C117.469 165.867 117.741 166.023 117.93 166.261L181.199 115.987Z" fill="#849573" stroke="white"/>
<path d="M69.7573 99.9769C60.4639 106.528 52.6344 114.939 46.766 124.678C40.8976 134.417 37.1186 145.269 35.6691 156.547C34.2196 167.824 35.1312 179.279 38.346 190.185C41.5609 201.092 47.0087 211.21 54.3434 219.898L116.092 167.767C115.986 167.641 115.907 167.494 115.86 167.336C115.813 167.178 115.8 167.012 115.821 166.849C115.842 166.685 115.897 166.528 115.982 166.387C116.067 166.246 116.181 166.124 116.315 166.029L69.7573 99.9769Z" fill="#849573" stroke="white"/>
<path d="M54.3428 219.898C65.1848 232.74 79.7112 241.941 95.9552 246.254C112.199 250.567 129.376 249.785 145.161 244.013C160.946 238.241 174.576 227.758 184.205 213.983C193.835 200.208 198.999 183.807 198.999 167H118.188C118.188 167.244 118.113 167.482 117.973 167.681C117.834 167.881 117.636 168.033 117.407 168.116C117.179 168.2 116.93 168.211 116.694 168.149C116.459 168.086 116.248 167.953 116.091 167.767L54.3428 219.898Z" fill="#849573" stroke="white"/>
<path d="M22.734 24.126C22.734 23.594 22.5753 23.1693 22.258 22.852C21.9407 22.5347 21.4367 22.376 20.746 22.376H18.506V25.862H20.76C21.2173 25.862 21.5907 25.792 21.88 25.652C22.1693 25.5027 22.384 25.2973 22.524 25.036C22.664 24.7747 22.734 24.4713 22.734 24.126ZM20.746 21.2C21.5207 21.2 22.1553 21.3353 22.65 21.606C23.154 21.8673 23.5273 22.2173 23.77 22.656C24.022 23.0947 24.148 23.5847 24.148 24.126C24.148 24.4807 24.0873 24.8307 23.966 25.176C23.8447 25.5213 23.6487 25.8387 23.378 26.128C23.1073 26.408 22.7527 26.632 22.314 26.8C21.8847 26.9587 21.3667 27.038 20.76 27.038H18.506V31H17.106V21.2H20.746ZM21.642 26.562L24.344 31H22.762L20.158 26.562H21.642ZM30.1784 31L30.0664 29.978C29.8517 30.3327 29.5717 30.608 29.2264 30.804C28.8904 30.9907 28.4517 31.084 27.9104 31.084C27.4064 31.084 26.9771 31.0047 26.6224 30.846C26.2677 30.678 25.9924 30.4493 25.7964 30.16C25.6097 29.8613 25.5164 29.516 25.5164 29.124C25.5164 28.536 25.7357 28.0507 26.1744 27.668C26.6131 27.276 27.2477 27.0333 28.0784 26.94L30.0664 26.716V26.17C30.0664 25.8713 29.9451 25.6193 29.7024 25.414C29.4597 25.1993 29.1097 25.092 28.6524 25.092C28.2231 25.092 27.8591 25.1947 27.5604 25.4C27.2617 25.596 27.0611 25.89 26.9584 26.282L25.7824 25.862C25.9597 25.246 26.3051 24.7653 26.8184 24.42C27.3411 24.0747 27.9711 23.902 28.7084 23.902C29.5857 23.902 30.2531 24.1213 30.7104 24.56C31.1677 24.9987 31.3964 25.5773 31.3964 26.296V31H30.1784ZM30.0664 27.794L28.1484 28.032C27.7377 28.088 27.4297 28.2047 27.2244 28.382C27.0191 28.55 26.9164 28.774 26.9164 29.054C26.9164 29.3153 27.0144 29.5347 27.2104 29.712C27.4157 29.88 27.7004 29.964 28.0644 29.964C28.5124 29.964 28.8857 29.88 29.1844 29.712C29.4831 29.544 29.7024 29.3107 29.8424 29.012C29.9917 28.704 30.0664 28.3493 30.0664 27.948V27.794ZM33.7392 24V22.04H35.0692V24H36.8192V25.176H35.0692V28.62C35.0692 29.0493 35.1532 29.3527 35.3212 29.53C35.4985 29.7073 35.7179 29.81 35.9792 29.838C36.2499 29.8567 36.5299 29.8473 36.8192 29.81V30.944C36.4365 31.028 36.0585 31.0513 35.6852 31.014C35.3212 30.986 34.9899 30.8833 34.6912 30.706C34.4019 30.5287 34.1685 30.272 33.9912 29.936C33.8232 29.5907 33.7392 29.152 33.7392 28.62V25.176H32.7312V24H33.7392ZM41.3331 31.098C40.6611 31.098 40.0638 30.944 39.5411 30.636C39.0278 30.3187 38.6218 29.8847 38.3231 29.334C38.0338 28.7833 37.8891 28.1533 37.8891 27.444C37.8891 26.7627 38.0338 26.156 38.3231 25.624C38.6124 25.092 39.0091 24.672 39.5131 24.364C40.0264 24.056 40.6051 23.902 41.2491 23.902C41.9024 23.902 42.4811 24.0467 42.9851 24.336C43.4891 24.616 43.8811 25.0127 44.1611 25.526C44.4411 26.03 44.5764 26.6133 44.5671 27.276C44.5671 27.388 44.5624 27.5047 44.5531 27.626C44.5438 27.738 44.5298 27.864 44.5111 28.004H39.3311C39.3591 28.3773 39.4618 28.7087 39.6391 28.998C39.8258 29.278 40.0591 29.4973 40.3391 29.656C40.6284 29.8147 40.9551 29.894 41.3191 29.894C41.7858 29.894 42.1918 29.8053 42.5371 29.628C42.8824 29.4413 43.1251 29.194 43.2651 28.886L44.4131 29.292C44.1331 29.8613 43.7224 30.3047 43.1811 30.622C42.6491 30.9393 42.0331 31.098 41.3331 31.098ZM43.1251 26.87C43.1251 26.534 43.0411 26.2307 42.8731 25.96C42.7051 25.6893 42.4764 25.4793 42.1871 25.33C41.9071 25.1713 41.5898 25.092 41.2351 25.092C40.9178 25.092 40.6238 25.1713 40.3531 25.33C40.0918 25.4793 39.8678 25.6893 39.6811 25.96C39.5038 26.2213 39.3918 26.5247 39.3451 26.87H43.1251Z" fill="#F5F5F5" fill-opacity="0.25"/>
</svg>
