<svg width="746" height="326" viewBox="0 0 746 326" fill="none" xmlns="http://www.w3.org/2000/svg">
<rect width="746" height="326" rx="8" fill="#D9D9D9"/>
<path d="M16.56 20.1C16.56 19.3627 16.686 18.6907 16.938 18.084C17.19 17.468 17.54 16.9407 17.988 16.502C18.436 16.054 18.954 15.7087 19.542 15.466C20.1393 15.2233 20.7833 15.102 21.474 15.102C22.454 15.102 23.3267 15.3307 24.092 15.788C24.8667 16.2453 25.4547 16.9033 25.856 17.762L24.736 18.168C24.512 17.7293 24.2273 17.3747 23.882 17.104C23.5367 16.8333 23.1587 16.6327 22.748 16.502C22.3373 16.3713 21.922 16.306 21.502 16.306C20.8393 16.306 20.2373 16.46 19.696 16.768C19.164 17.076 18.744 17.5147 18.436 18.084C18.1373 18.6533 17.988 19.3253 17.988 20.1C17.988 20.8653 18.1373 21.5327 18.436 22.102C18.744 22.6713 19.164 23.1147 19.696 23.432C20.2373 23.74 20.8393 23.894 21.502 23.894C21.9313 23.894 22.356 23.824 22.776 23.684C23.196 23.544 23.588 23.32 23.952 23.012C24.316 22.6947 24.6147 22.284 24.848 21.78L25.968 22.172C25.548 23.1613 24.946 23.8987 24.162 24.384C23.378 24.86 22.482 25.098 21.474 25.098C20.7833 25.098 20.1393 24.9767 19.542 24.734C18.954 24.4913 18.436 24.146 17.988 23.698C17.54 23.25 17.19 22.7227 16.938 22.116C16.686 21.5 16.56 20.828 16.56 20.1ZM27.6994 14.92H29.0154V18.77C29.2394 18.4993 29.5287 18.2893 29.8834 18.14C30.2381 17.9813 30.6301 17.902 31.0594 17.902C31.5821 17.902 32.0394 18.0187 32.4314 18.252C32.8327 18.476 33.1454 18.8167 33.3694 19.274C33.5934 19.722 33.7054 20.282 33.7054 20.954V25H32.3194V21.122C32.3194 20.4687 32.1841 19.9693 31.9134 19.624C31.6427 19.2787 31.2461 19.106 30.7234 19.106C30.1821 19.106 29.7621 19.2833 29.4634 19.638C29.1647 19.9927 29.0154 20.5107 29.0154 21.192V25H27.6994V14.92ZM39.8854 25L39.7734 23.978C39.5588 24.3327 39.2788 24.608 38.9334 24.804C38.5974 24.9907 38.1588 25.084 37.6174 25.084C37.1134 25.084 36.6841 25.0047 36.3294 24.846C35.9748 24.678 35.6994 24.4493 35.5034 24.16C35.3168 23.8613 35.2234 23.516 35.2234 23.124C35.2234 22.536 35.4428 22.0507 35.8814 21.668C36.3201 21.276 36.9548 21.0333 37.7854 20.94L39.7734 20.716V20.17C39.7734 19.8713 39.6521 19.6193 39.4094 19.414C39.1668 19.1993 38.8168 19.092 38.3594 19.092C37.9301 19.092 37.5661 19.1947 37.2674 19.4C36.9688 19.596 36.7681 19.89 36.6654 20.282L35.4894 19.862C35.6668 19.246 36.0121 18.7653 36.5254 18.42C37.0481 18.0747 37.6781 17.902 38.4154 17.902C39.2928 17.902 39.9601 18.1213 40.4174 18.56C40.8748 18.9987 41.1034 19.5773 41.1034 20.296V25H39.8854ZM39.7734 21.794L37.8554 22.032C37.4448 22.088 37.1368 22.2047 36.9314 22.382C36.7261 22.55 36.6234 22.774 36.6234 23.054C36.6234 23.3153 36.7214 23.5347 36.9174 23.712C37.1228 23.88 37.4074 23.964 37.7714 23.964C38.2194 23.964 38.5928 23.88 38.8914 23.712C39.1901 23.544 39.4094 23.3107 39.5494 23.012C39.6988 22.704 39.7734 22.3493 39.7734 21.948V21.794ZM42.9982 18H44.2022L44.2862 18.938C44.4822 18.6953 44.7062 18.4947 44.9582 18.336C45.2196 18.168 45.4996 18.0513 45.7982 17.986C46.1062 17.9207 46.4236 17.9253 46.7502 18V19.246C46.4422 19.1713 46.1436 19.162 45.8542 19.218C45.5649 19.274 45.3036 19.3953 45.0702 19.582C44.8462 19.7593 44.6642 19.9973 44.5242 20.296C44.3842 20.5947 44.3142 20.954 44.3142 21.374V25H42.9982V18ZM48.5322 18V16.04H49.8622V18H51.6122V19.176H49.8622V22.62C49.8622 23.0493 49.9462 23.3527 50.1142 23.53C50.2915 23.7073 50.5108 23.81 50.7722 23.838C51.0428 23.8567 51.3228 23.8473 51.6122 23.81V24.944C51.2295 25.028 50.8515 25.0513 50.4782 25.014C50.1142 24.986 49.7828 24.8833 49.4842 24.706C49.1948 24.5287 48.9615 24.272 48.7842 23.936C48.6162 23.5907 48.5322 23.152 48.5322 22.62V19.176H47.5242V18H48.5322Z" fill="#808080"/>
<path d="M48.7025 271.417H723.053" stroke="black"/>
<path d="M48.7025 277.376V271.417" stroke="black"/>
<path d="M48.7026 297.957C48.0606 297.957 47.5137 297.782 47.062 297.432C46.6103 297.08 46.2651 296.57 46.0265 295.903C45.7878 295.232 45.6685 294.423 45.6685 293.474C45.6685 292.53 45.7878 291.725 46.0265 291.057C46.2679 290.387 46.6145 289.876 47.0662 289.523C47.5208 289.168 48.0662 288.991 48.7026 288.991C49.339 288.991 49.883 289.168 50.3347 289.523C50.7892 289.876 51.1358 290.387 51.3745 291.057C51.616 291.725 51.7367 292.53 51.7367 293.474C51.7367 294.423 51.6174 295.232 51.3787 295.903C51.1401 296.57 50.7949 297.08 50.3432 297.432C49.8915 297.782 49.3446 297.957 48.7026 297.957ZM48.7026 297.019C49.339 297.019 49.8333 296.712 50.1856 296.099C50.5378 295.485 50.714 294.61 50.714 293.474C50.714 292.718 50.633 292.074 50.4711 291.543C50.312 291.012 50.0819 290.607 49.7807 290.329C49.4824 290.05 49.1231 289.911 48.7026 289.911C48.0719 289.911 47.579 290.222 47.2239 290.844C46.8688 291.464 46.6912 292.34 46.6912 293.474C46.6912 294.229 46.7708 294.871 46.9299 295.4C47.089 295.928 47.3177 296.33 47.616 296.606C47.9171 296.881 48.2793 297.019 48.7026 297.019Z" fill="black"/>
<path d="M145.038 277.376V271.417" stroke="black"/>
<path d="M146.221 289.11V297.837H145.164V290.218H145.113L142.982 291.633V290.559L145.164 289.11H146.221Z" fill="black"/>
<path d="M241.374 277.376V271.417" stroke="black"/>
<path d="M238.645 297.837V297.07L241.526 293.917C241.864 293.548 242.142 293.226 242.361 292.954C242.579 292.678 242.741 292.42 242.847 292.178C242.954 291.934 243.008 291.678 243.008 291.411C243.008 291.104 242.935 290.839 242.787 290.614C242.642 290.39 242.443 290.217 242.19 290.094C241.937 289.972 241.653 289.911 241.338 289.911C241.003 289.911 240.71 289.981 240.46 290.12C240.213 290.256 240.021 290.448 239.885 290.695C239.751 290.942 239.685 291.232 239.685 291.565H238.679C238.679 291.053 238.797 290.604 239.033 290.218C239.268 289.832 239.589 289.53 239.996 289.315C240.405 289.099 240.864 288.991 241.372 288.991C241.883 288.991 242.337 289.099 242.731 289.315C243.126 289.53 243.436 289.822 243.66 290.188C243.885 290.555 243.997 290.962 243.997 291.411C243.997 291.732 243.939 292.046 243.822 292.353C243.709 292.657 243.51 292.996 243.226 293.371C242.945 293.744 242.554 294.198 242.054 294.735L240.094 296.832V296.9H244.151V297.837H238.645Z" fill="black"/>
<path d="M337.71 277.376V271.417" stroke="black"/>
<path d="M337.742 297.957C337.18 297.957 336.678 297.86 336.238 297.667C335.8 297.474 335.452 297.205 335.194 296.861C334.938 296.515 334.799 296.113 334.776 295.655H335.85C335.873 295.937 335.969 296.18 336.14 296.384C336.31 296.586 336.533 296.742 336.809 296.853C337.084 296.964 337.39 297.019 337.725 297.019C338.1 297.019 338.432 296.954 338.722 296.823C339.012 296.692 339.239 296.511 339.404 296.278C339.569 296.045 339.651 295.775 339.651 295.468C339.651 295.147 339.572 294.864 339.412 294.62C339.253 294.373 339.02 294.18 338.714 294.04C338.407 293.901 338.032 293.832 337.589 293.832H336.89V292.894H337.589C337.935 292.894 338.239 292.832 338.501 292.707C338.765 292.582 338.971 292.405 339.118 292.178C339.269 291.951 339.344 291.684 339.344 291.377C339.344 291.082 339.279 290.824 339.148 290.606C339.018 290.387 338.833 290.217 338.594 290.094C338.358 289.972 338.08 289.911 337.759 289.911C337.458 289.911 337.174 289.967 336.907 290.077C336.643 290.185 336.427 290.343 336.259 290.55C336.091 290.755 336.001 291.002 335.986 291.292H334.964C334.981 290.834 335.118 290.434 335.377 290.09C335.635 289.744 335.974 289.474 336.391 289.28C336.812 289.087 337.273 288.991 337.776 288.991C338.316 288.991 338.779 289.1 339.165 289.319C339.552 289.535 339.849 289.82 340.056 290.175C340.263 290.53 340.367 290.914 340.367 291.326C340.367 291.817 340.238 292.236 339.979 292.583C339.724 292.93 339.376 293.17 338.935 293.303V293.371C339.486 293.462 339.917 293.697 340.226 294.074C340.536 294.449 340.691 294.914 340.691 295.468C340.691 295.942 340.562 296.369 340.303 296.746C340.047 297.121 339.698 297.417 339.255 297.633C338.812 297.849 338.307 297.957 337.742 297.957Z" fill="black"/>
<path d="M434.046 277.376V271.417" stroke="black"/>
<path d="M430.895 296.048V295.178L434.73 289.11H435.361V290.457H434.935L432.037 295.042V295.11H437.202V296.048H430.895ZM435.003 297.837V295.783V295.378V289.11H436.009V297.837H435.003Z" fill="black"/>
<path d="M530.381 277.376V271.417" stroke="black"/>
<path d="M530.362 297.957C529.862 297.957 529.412 297.857 529.011 297.658C528.61 297.459 528.289 297.187 528.048 296.84C527.806 296.494 527.674 296.099 527.652 295.655H528.674C528.714 296.05 528.893 296.377 529.211 296.636C529.532 296.891 529.916 297.019 530.362 297.019C530.72 297.019 531.038 296.935 531.316 296.768C531.598 296.6 531.818 296.37 531.977 296.077C532.139 295.782 532.22 295.448 532.22 295.076C532.22 294.695 532.136 294.356 531.968 294.057C531.804 293.756 531.576 293.519 531.287 293.346C530.997 293.173 530.666 293.084 530.294 293.082C530.027 293.079 529.752 293.12 529.471 293.205C529.19 293.288 528.958 293.394 528.777 293.525L527.788 293.405L528.316 289.11H532.85V290.048H529.203L528.896 292.621H528.947C529.126 292.479 529.35 292.361 529.62 292.268C529.89 292.174 530.172 292.127 530.464 292.127C530.998 292.127 531.474 292.255 531.892 292.511C532.312 292.763 532.642 293.11 532.88 293.55C533.122 293.991 533.243 294.494 533.243 295.059C533.243 295.616 533.118 296.113 532.868 296.55C532.62 296.985 532.279 297.329 531.845 297.582C531.41 297.832 530.916 297.957 530.362 297.957Z" fill="black"/>
<path d="M626.717 277.376V271.417" stroke="black"/>
<path d="M626.774 297.957C626.416 297.951 626.058 297.883 625.7 297.752C625.342 297.621 625.016 297.401 624.72 297.092C624.425 296.779 624.188 296.357 624.009 295.826C623.83 295.292 623.74 294.621 623.74 293.815C623.74 293.042 623.813 292.357 623.957 291.761C624.102 291.161 624.313 290.657 624.588 290.248C624.864 289.836 625.196 289.523 625.585 289.31C625.977 289.097 626.419 288.991 626.911 288.991C627.399 288.991 627.834 289.089 628.215 289.285C628.598 289.478 628.911 289.748 629.152 290.094C629.394 290.441 629.55 290.84 629.621 291.292H628.581C628.484 290.9 628.297 290.574 628.019 290.316C627.74 290.057 627.371 289.928 626.911 289.928C626.234 289.928 625.702 290.222 625.313 290.81C624.926 291.398 624.732 292.224 624.729 293.286H624.797C624.956 293.045 625.145 292.839 625.364 292.668C625.585 292.495 625.83 292.361 626.097 292.268C626.364 292.174 626.646 292.127 626.945 292.127C627.445 292.127 627.902 292.252 628.317 292.502C628.732 292.749 629.064 293.092 629.314 293.529C629.564 293.964 629.689 294.462 629.689 295.025C629.689 295.565 629.568 296.059 629.327 296.508C629.085 296.954 628.746 297.309 628.308 297.573C627.874 297.834 627.362 297.962 626.774 297.957ZM626.774 297.019C627.132 297.019 627.453 296.93 627.737 296.751C628.024 296.572 628.25 296.332 628.415 296.03C628.582 295.729 628.666 295.394 628.666 295.025C628.666 294.664 628.585 294.336 628.423 294.04C628.264 293.742 628.044 293.505 627.763 293.329C627.484 293.153 627.166 293.065 626.808 293.065C626.538 293.065 626.287 293.119 626.054 293.226C625.821 293.332 625.617 293.476 625.44 293.661C625.267 293.846 625.131 294.057 625.031 294.296C624.932 294.532 624.882 294.78 624.882 295.042C624.882 295.388 624.963 295.712 625.125 296.013C625.29 296.315 625.514 296.557 625.798 296.742C626.085 296.927 626.411 297.019 626.774 297.019Z" fill="black"/>
<path d="M723.053 277.376V271.417" stroke="black"/>
<path d="M720.802 297.837L724.705 290.116V290.048H720.205V289.11H725.796V290.099L721.909 297.837H720.802Z" fill="black"/>
<path d="M48.7025 112.52V271.417" stroke="black"/>
<path d="M41.9366 271.417H48.7027" stroke="black"/>
<path d="M32.5483 275.85C31.9062 275.85 31.3593 275.675 30.9076 275.326C30.4559 274.974 30.1108 274.464 29.8721 273.796C29.6335 273.126 29.5142 272.316 29.5142 271.367C29.5142 270.424 29.6335 269.618 29.8721 268.951C30.1136 268.28 30.4602 267.769 30.9119 267.417C31.3664 267.062 31.9119 266.884 32.5483 266.884C33.1846 266.884 33.7287 267.062 34.1804 267.417C34.6349 267.769 34.9815 268.28 35.2201 268.951C35.4616 269.618 35.5824 270.424 35.5824 271.367C35.5824 272.316 35.463 273.126 35.2244 273.796C34.9858 274.464 34.6406 274.974 34.1889 275.326C33.7372 275.675 33.1903 275.85 32.5483 275.85ZM32.5483 274.912C33.1846 274.912 33.6789 274.606 34.0312 273.992C34.3835 273.378 34.5596 272.503 34.5596 271.367C34.5596 270.611 34.4787 269.968 34.3167 269.437C34.1576 268.905 33.9275 268.501 33.6264 268.222C33.3281 267.944 32.9687 267.805 32.5483 267.805C31.9176 267.805 31.4247 268.116 31.0696 268.738C30.7145 269.357 30.5369 270.233 30.5369 271.367C30.5369 272.123 30.6164 272.765 30.7755 273.293C30.9346 273.822 31.1633 274.224 31.4616 274.499C31.7628 274.775 32.125 274.912 32.5483 274.912Z" fill="black"/>
<path d="M41.9365 231.693H48.7026" stroke="black"/>
<path d="M22.4232 236.126C21.7811 236.126 21.2343 235.951 20.7825 235.602C20.3308 235.249 19.9857 234.739 19.747 234.072C19.5084 233.401 19.3891 232.592 19.3891 231.643C19.3891 230.7 19.5084 229.894 19.747 229.227C19.9885 228.556 20.3351 228.045 20.7868 227.693C21.2414 227.337 21.7868 227.16 22.4232 227.16C23.0595 227.16 23.6036 227.337 24.0553 227.693C24.5098 228.045 24.8564 228.556 25.095 229.227C25.3365 229.894 25.4573 230.7 25.4573 231.643C25.4573 232.592 25.3379 233.401 25.0993 234.072C24.8607 234.739 24.5155 235.249 24.0638 235.602C23.6121 235.951 23.0652 236.126 22.4232 236.126ZM22.4232 235.188C23.0595 235.188 23.5539 234.881 23.9061 234.268C24.2584 233.654 24.4345 232.779 24.4345 231.643C24.4345 230.887 24.3536 230.244 24.1916 229.712C24.0325 229.181 23.8024 228.776 23.5013 228.498C23.203 228.22 22.8436 228.08 22.4232 228.08C21.7925 228.08 21.2996 228.391 20.9445 229.014C20.5894 229.633 20.4118 230.509 20.4118 231.643C20.4118 232.399 20.4914 233.041 20.6504 233.569C20.8095 234.097 21.0382 234.499 21.3365 234.775C21.6377 235.051 21.9999 235.188 22.4232 235.188ZM27.5219 236.075C27.3117 236.075 27.1313 235.999 26.9807 235.849C26.8301 235.698 26.7549 235.518 26.7549 235.308C26.7549 235.097 26.8301 234.917 26.9807 234.766C27.1313 234.616 27.3117 234.541 27.5219 234.541C27.7321 234.541 27.9125 234.616 28.0631 234.766C28.2137 234.917 28.2889 235.097 28.2889 235.308C28.2889 235.447 28.2534 235.575 28.1824 235.691C28.1142 235.808 28.0219 235.901 27.9054 235.972C27.7918 236.041 27.6639 236.075 27.5219 236.075ZM32.6281 236.126C32.1281 236.126 31.6778 236.026 31.2772 235.827C30.8767 235.629 30.5556 235.356 30.3142 235.009C30.0727 234.663 29.9406 234.268 29.9178 233.825H30.9406C30.9803 234.22 31.1593 234.546 31.4775 234.805C31.7985 235.06 32.1821 235.188 32.6281 235.188C32.986 235.188 33.3042 235.104 33.5826 234.937C33.8639 234.769 34.084 234.539 34.2431 234.247C34.4051 233.951 34.486 233.617 34.486 233.245C34.486 232.864 34.4022 232.525 34.2346 232.227C34.0698 231.926 33.8426 231.688 33.5528 231.515C33.263 231.342 32.9321 231.254 32.5599 231.251C32.2928 231.248 32.0187 231.289 31.7374 231.374C31.4562 231.457 31.2247 231.563 31.0428 231.694L30.0542 231.575L30.5826 227.279H35.1167V228.217H31.469L31.1622 230.791H31.2133C31.3923 230.649 31.6167 230.531 31.8866 230.437C32.1565 230.343 32.4377 230.296 32.7303 230.296C33.2644 230.296 33.7403 230.424 34.1579 230.68C34.5784 230.933 34.9079 231.279 35.1465 231.72C35.388 232.16 35.5088 232.663 35.5088 233.228C35.5088 233.785 35.3838 234.282 35.1338 234.72C34.8866 235.154 34.5457 235.498 34.111 235.751C33.6764 236.001 33.1821 236.126 32.6281 236.126Z" fill="black"/>
<path d="M41.9365 191.969H48.7026" stroke="black"/>
<path d="M34.6916 187.555V196.282H33.6348V188.663H33.5837L31.453 190.078V189.004L33.6348 187.555H34.6916Z" fill="black"/>
<path d="M41.9366 152.245H48.7027" stroke="black"/>
<path d="M24.7776 147.831V156.558H23.7208V148.939H23.6696L21.539 150.353V149.279L23.7208 147.831H24.7776ZM27.5219 156.626C27.3117 156.626 27.1313 156.551 26.9807 156.4C26.8302 156.25 26.7549 156.069 26.7549 155.859C26.7549 155.649 26.8302 155.468 26.9807 155.318C27.1313 155.167 27.3117 155.092 27.5219 155.092C27.7321 155.092 27.9125 155.167 28.0631 155.318C28.2137 155.468 28.289 155.649 28.289 155.859C28.289 155.998 28.2534 156.126 28.1824 156.243C28.1142 156.359 28.0219 156.453 27.9054 156.524C27.7918 156.592 27.664 156.626 27.5219 156.626ZM32.6281 156.677C32.1281 156.677 31.6778 156.578 31.2772 156.379C30.8767 156.18 30.5557 155.907 30.3142 155.561C30.0727 155.214 29.9406 154.819 29.9179 154.376H30.9406C30.9804 154.771 31.1593 155.098 31.4775 155.356C31.7985 155.612 32.1821 155.74 32.6281 155.74C32.986 155.74 33.3042 155.656 33.5826 155.488C33.8639 155.321 34.0841 155.091 34.2432 154.798C34.4051 154.502 34.486 154.169 34.486 153.796C34.486 153.416 34.4022 153.076 34.2346 152.778C34.0699 152.477 33.8426 152.24 33.5528 152.066C33.263 151.893 32.9321 151.805 32.5599 151.802C32.2929 151.799 32.0187 151.841 31.7375 151.926C31.4562 152.008 31.2247 152.115 31.0429 152.245L30.0542 152.126L30.5826 147.831H35.1167V148.768H31.469L31.1622 151.342H31.2133C31.3923 151.2 31.6167 151.082 31.8866 150.988C32.1565 150.895 32.4378 150.848 32.7304 150.848C33.2645 150.848 33.7403 150.975 34.1579 151.231C34.5784 151.484 34.9079 151.831 35.1466 152.271C35.388 152.711 35.5088 153.214 35.5088 153.779C35.5088 154.336 35.3838 154.833 35.1338 155.271C34.8866 155.706 34.5457 156.049 34.111 156.302C33.6764 156.552 33.1821 156.677 32.6281 156.677Z" fill="black"/>
<path d="M41.9366 112.52H48.7027" stroke="black"/>
<path d="M29.9361 121V120.233L32.8167 117.08C33.1548 116.71 33.4332 116.389 33.652 116.117C33.8707 115.841 34.0326 115.582 34.1378 115.341C34.2457 115.097 34.2997 114.841 34.2997 114.574C34.2997 114.267 34.2258 114.001 34.0781 113.777C33.9332 113.553 33.7343 113.379 33.4815 113.257C33.2287 113.135 32.9446 113.074 32.6292 113.074C32.294 113.074 32.0014 113.143 31.7514 113.283C31.5042 113.419 31.3125 113.611 31.1761 113.858C31.0426 114.105 30.9758 114.395 30.9758 114.727H29.9701C29.9701 114.216 30.088 113.767 30.3238 113.381C30.5596 112.994 30.8807 112.693 31.2869 112.477C31.696 112.261 32.1548 112.153 32.6633 112.153C33.1747 112.153 33.6278 112.261 34.0227 112.477C34.4176 112.693 34.7272 112.984 34.9517 113.351C35.1761 113.717 35.2883 114.125 35.2883 114.574C35.2883 114.895 35.2301 115.209 35.1136 115.516C35 115.82 34.8011 116.159 34.517 116.534C34.2358 116.906 33.8451 117.361 33.3451 117.898L31.3849 119.994V120.063H35.4417V121H29.9361Z" fill="black"/>
<path d="M49.5 235.302L145.038 112.52H241.374L337.71 191.969H434.046L530.381 112.52L626.717 191.969L723.053 112.52" stroke="#06C163" stroke-width="1.5"/>
<path d="M608.992 46.112C608.437 45.888 608 45.5733 607.68 45.168C607.36 44.752 607.2 44.2347 607.2 43.616C607.2 43.072 607.344 42.5813 607.632 42.144C607.92 41.7067 608.341 41.3547 608.896 41.088C609.461 40.8213 610.171 40.688 611.024 40.688C611.867 40.688 612.571 40.8213 613.136 41.088C613.701 41.3547 614.123 41.712 614.4 42.16C614.688 42.5973 614.832 43.0827 614.832 43.616C614.832 44.2027 614.667 44.7147 614.336 45.152C614.005 45.5787 613.573 45.8987 613.04 46.112C613.68 46.3147 614.187 46.6507 614.56 47.12C614.944 47.5893 615.136 48.1653 615.136 48.848C615.136 49.52 614.96 50.1013 614.608 50.592C614.256 51.072 613.771 51.4453 613.152 51.712C612.544 51.9787 611.835 52.112 611.024 52.112C610.213 52.112 609.499 51.9787 608.88 51.712C608.261 51.4453 607.776 51.072 607.424 50.592C607.083 50.1013 606.912 49.52 606.912 48.848C606.912 48.1653 607.099 47.5893 607.472 47.12C607.856 46.64 608.363 46.304 608.992 46.112ZM613.2 43.792C613.2 43.184 613.008 42.7467 612.624 42.48C612.251 42.2027 611.717 42.064 611.024 42.064C610.341 42.064 609.803 42.1973 609.408 42.464C609.024 42.7307 608.832 43.1787 608.832 43.808C608.832 44.352 609.029 44.784 609.424 45.104C609.819 45.4133 610.352 45.568 611.024 45.568C611.696 45.568 612.224 45.4133 612.608 45.104C613.003 44.784 613.2 44.3467 613.2 43.792ZM611.024 46.816C610.544 46.816 610.112 46.8853 609.728 47.024C609.355 47.1627 609.061 47.376 608.848 47.664C608.635 47.952 608.528 48.3307 608.528 48.8C608.528 49.4187 608.741 49.8987 609.168 50.24C609.605 50.5707 610.224 50.736 611.024 50.736C611.813 50.736 612.427 50.5653 612.864 50.224C613.301 49.8827 613.52 49.408 613.52 48.8C613.52 48.352 613.413 47.984 613.2 47.696C612.987 47.3973 612.693 47.1787 612.32 47.04C611.947 46.8907 611.515 46.816 611.024 46.816ZM624.303 40.8V42.144H618.895V45.488C619.119 45.1787 619.444 44.928 619.871 44.736C620.298 44.544 620.783 44.448 621.327 44.448C622.02 44.448 622.602 44.5653 623.071 44.8C623.54 45.0347 623.919 45.3387 624.207 45.712C624.506 46.0853 624.719 46.4907 624.847 46.928C624.986 47.3547 625.055 47.7653 625.055 48.16C625.055 48.8853 624.9 49.5467 624.591 50.144C624.292 50.7413 623.844 51.2213 623.247 51.584C622.65 51.936 621.924 52.112 621.071 52.112C620.303 52.112 619.631 51.9787 619.055 51.712C618.49 51.4347 618.036 51.0613 617.695 50.592C617.364 50.112 617.151 49.568 617.055 48.96H618.607C618.746 49.5147 619.028 49.952 619.455 50.272C619.892 50.5813 620.436 50.736 621.087 50.736C621.62 50.736 622.063 50.6293 622.415 50.416C622.767 50.2027 623.023 49.9093 623.183 49.536C623.354 49.152 623.439 48.704 623.439 48.192C623.439 47.4453 623.236 46.864 622.831 46.448C622.426 46.032 621.85 45.824 621.103 45.824C620.538 45.824 620.058 45.9573 619.663 46.224C619.268 46.4907 618.986 46.8533 618.815 47.312H617.311V40.8H624.303ZM634.288 40.8V41.984L629.84 52H628.24L632.736 42.144H626.656V40.8H634.288ZM635.93 43.84C635.973 43.168 636.159 42.5973 636.49 42.128C636.831 41.6587 637.279 41.3013 637.834 41.056C638.389 40.8107 639.023 40.688 639.738 40.688C640.495 40.688 641.135 40.832 641.658 41.12C642.181 41.408 642.575 41.792 642.842 42.272C643.119 42.7413 643.258 43.2533 643.258 43.808C643.258 44.2133 643.173 44.5867 643.002 44.928C642.831 45.2587 642.597 45.5413 642.298 45.776C642.01 46.0107 641.679 46.176 641.306 46.272V46.352C641.733 46.4587 642.106 46.6293 642.426 46.864C642.757 47.088 643.013 47.3813 643.194 47.744C643.375 48.096 643.466 48.5227 643.466 49.024C643.466 49.632 643.327 50.1707 643.05 50.64C642.773 51.0987 642.357 51.4613 641.802 51.728C641.258 51.984 640.581 52.112 639.77 52.112C638.991 52.112 638.309 51.9947 637.722 51.76C637.135 51.5253 636.671 51.1573 636.33 50.656C635.999 50.1547 635.813 49.504 635.77 48.704H637.306C637.359 49.3653 637.578 49.872 637.962 50.224C638.346 50.5653 638.949 50.736 639.77 50.736C640.25 50.736 640.645 50.6613 640.954 50.512C641.263 50.3627 641.487 50.1547 641.626 49.888C641.775 49.6107 641.85 49.28 641.85 48.896C641.85 48.1707 641.599 47.68 641.098 47.424C640.607 47.1573 639.861 47.024 638.858 47.024H638.458V45.664H638.874C639.482 45.6533 639.989 45.5893 640.394 45.472C640.81 45.3547 641.119 45.1787 641.322 44.944C641.535 44.6987 641.642 44.3787 641.642 43.984C641.642 43.4507 641.482 42.9973 641.162 42.624C640.842 42.2507 640.351 42.064 639.69 42.064C639.242 42.064 638.863 42.144 638.554 42.304C638.245 42.4533 637.999 42.6613 637.818 42.928C637.637 43.1947 637.525 43.4987 637.482 43.84H635.93Z" fill="black"/>
<path d="M613.196 19.2V20.04L609.304 29H608.17L612.118 20.18H606.602V19.2H613.196ZM620.261 23.414L620.149 23.428V18.92H621.199V29H620.233L620.163 27.698C619.949 28.09 619.627 28.4213 619.197 28.692C618.777 28.9627 618.255 29.098 617.629 29.098C616.985 29.098 616.421 28.9533 615.935 28.664C615.459 28.3653 615.086 27.9453 614.815 27.404C614.554 26.8627 614.423 26.228 614.423 25.5C614.423 24.772 614.554 24.142 614.815 23.61C615.086 23.0687 615.459 22.6487 615.935 22.35C616.421 22.0513 616.985 21.902 617.629 21.902C618.292 21.902 618.843 22.0467 619.281 22.336C619.72 22.6253 620.047 22.9847 620.261 23.414ZM615.557 25.5C615.557 26.3027 615.763 26.942 616.173 27.418C616.584 27.8847 617.144 28.118 617.853 28.118C618.292 28.118 618.684 28.0153 619.029 27.81C619.375 27.6047 619.645 27.306 619.841 26.914C620.047 26.522 620.149 26.0507 620.149 25.5C620.149 24.9493 620.047 24.4827 619.841 24.1C619.645 23.708 619.375 23.4093 619.029 23.204C618.684 22.9893 618.292 22.882 617.853 22.882C617.153 22.882 616.593 23.12 616.173 23.596C615.763 24.0627 615.557 24.6973 615.557 25.5ZM627.73 29L627.646 27.74C627.45 28.1693 627.16 28.5053 626.778 28.748C626.395 28.9813 625.91 29.098 625.322 29.098C624.818 29.098 624.388 29.0187 624.034 28.86C623.679 28.7013 623.404 28.4773 623.208 28.188C623.021 27.8893 622.928 27.5393 622.928 27.138C622.928 26.55 623.147 26.0693 623.586 25.696C624.024 25.3133 624.659 25.08 625.49 24.996L627.646 24.758V24.198C627.646 23.806 627.501 23.4933 627.212 23.26C626.922 23.0173 626.53 22.896 626.036 22.896C625.55 22.896 625.144 23.008 624.818 23.232C624.5 23.456 624.281 23.778 624.16 24.198L623.208 23.862C623.394 23.246 623.735 22.7653 624.23 22.42C624.734 22.0747 625.345 21.902 626.064 21.902C626.894 21.902 627.538 22.1167 627.996 22.546C628.462 22.966 628.696 23.54 628.696 24.268V29H627.73ZM627.646 25.654L625.476 25.906C625.009 25.962 624.654 26.0927 624.412 26.298C624.169 26.494 624.048 26.7553 624.048 27.082C624.048 27.4087 624.164 27.67 624.398 27.866C624.64 28.062 624.986 28.16 625.434 28.16C625.947 28.16 626.367 28.0573 626.694 27.852C627.02 27.6467 627.258 27.3713 627.408 27.026C627.566 26.6713 627.646 26.2887 627.646 25.878V25.654ZM635.49 22H636.582L632.578 31.8H631.57L632.76 28.902L629.932 22H631.08L633.32 27.656L635.49 22ZM638.496 26.858C638.552 27.138 638.654 27.3713 638.804 27.558C638.953 27.7353 639.144 27.8707 639.378 27.964C639.62 28.0573 639.9 28.104 640.218 28.104C640.712 28.104 641.086 28.0107 641.338 27.824C641.599 27.628 641.73 27.3853 641.73 27.096C641.73 26.8533 641.65 26.6573 641.492 26.508C641.342 26.3587 641.142 26.2373 640.89 26.144C640.638 26.0413 640.358 25.9527 640.05 25.878C639.807 25.822 639.546 25.7567 639.266 25.682C638.986 25.598 638.72 25.486 638.468 25.346C638.216 25.206 638.01 25.024 637.852 24.8C637.693 24.576 637.614 24.282 637.614 23.918C637.614 23.5167 637.721 23.1667 637.936 22.868C638.16 22.56 638.463 22.322 638.846 22.154C639.238 21.986 639.686 21.902 640.19 21.902C640.768 21.902 641.282 22.028 641.73 22.28C642.187 22.532 642.504 22.924 642.682 23.456L641.702 23.792C641.636 23.5493 641.515 23.3627 641.338 23.232C641.17 23.1013 640.978 23.0127 640.764 22.966C640.558 22.9193 640.353 22.896 640.148 22.896C639.728 22.896 639.387 22.98 639.126 23.148C638.874 23.3067 638.748 23.5493 638.748 23.876C638.748 24.0533 638.79 24.2027 638.874 24.324C638.958 24.436 639.074 24.5293 639.224 24.604C639.373 24.6787 639.55 24.744 639.756 24.8C639.961 24.8467 640.185 24.9027 640.428 24.968C640.698 25.0333 640.974 25.1173 641.254 25.22C641.534 25.3133 641.795 25.4393 642.038 25.598C642.28 25.7473 642.476 25.9433 642.626 26.186C642.784 26.4193 642.864 26.7133 642.864 27.068C642.864 27.4787 642.752 27.838 642.528 28.146C642.304 28.4447 641.991 28.678 641.59 28.846C641.198 29.014 640.74 29.098 640.218 29.098C639.499 29.098 638.902 28.9393 638.426 28.622C637.959 28.2953 637.646 27.8193 637.488 27.194L638.496 26.858ZM651.472 29.098C650.791 29.098 650.193 28.9487 649.68 28.65C649.167 28.3513 648.765 27.936 648.476 27.404C648.196 26.8627 648.056 26.2373 648.056 25.528C648.056 24.8093 648.196 24.1793 648.476 23.638C648.765 23.0873 649.167 22.6627 649.68 22.364C650.193 22.056 650.791 21.902 651.472 21.902C652.191 21.902 652.821 22.07 653.362 22.406C653.903 22.7327 654.295 23.19 654.538 23.778L653.572 24.114C653.432 23.7407 653.175 23.4467 652.802 23.232C652.438 23.008 652.013 22.896 651.528 22.896C651.052 22.896 650.637 23.0033 650.282 23.218C649.937 23.4327 649.666 23.736 649.47 24.128C649.283 24.52 649.19 24.982 649.19 25.514C649.19 26.298 649.4 26.928 649.82 27.404C650.24 27.8707 650.8 28.104 651.5 28.104C651.976 28.104 652.401 27.9967 652.774 27.782C653.147 27.5673 653.423 27.278 653.6 26.914L654.552 27.25C654.3 27.8287 653.903 28.2813 653.362 28.608C652.821 28.9347 652.191 29.098 651.472 29.098ZM659.293 29.098C658.631 29.098 658.038 28.9533 657.515 28.664C656.993 28.3747 656.582 27.964 656.283 27.432C655.985 26.8907 655.835 26.2513 655.835 25.514C655.835 24.7673 655.985 24.1233 656.283 23.582C656.591 23.0407 657.007 22.6253 657.529 22.336C658.061 22.0467 658.659 21.902 659.321 21.902C659.984 21.902 660.577 22.0467 661.099 22.336C661.631 22.6253 662.047 23.0407 662.345 23.582C662.653 24.114 662.807 24.7487 662.807 25.486C662.807 26.2327 662.653 26.8767 662.345 27.418C662.037 27.9593 661.617 28.3747 661.085 28.664C660.553 28.9533 659.956 29.098 659.293 29.098ZM659.279 28.104C659.69 28.104 660.077 28.0153 660.441 27.838C660.805 27.6513 661.099 27.3667 661.323 26.984C661.557 26.592 661.673 26.0973 661.673 25.5C661.673 24.8933 661.561 24.3987 661.337 24.016C661.113 23.6333 660.819 23.3533 660.455 23.176C660.101 22.9893 659.718 22.896 659.307 22.896C658.897 22.896 658.514 22.9893 658.159 23.176C657.805 23.3533 657.515 23.638 657.291 24.03C657.077 24.4127 656.969 24.9027 656.969 25.5C656.969 26.1067 657.077 26.6013 657.291 26.984C657.506 27.3667 657.786 27.6513 658.131 27.838C658.486 28.0153 658.869 28.104 659.279 28.104ZM664.527 22H665.493L665.549 22.994C665.773 22.6487 666.067 22.3827 666.431 22.196C666.795 22 667.22 21.902 667.705 21.902C668.237 21.902 668.704 22.0187 669.105 22.252C669.507 22.476 669.819 22.8167 670.043 23.274C670.267 23.722 670.379 24.2867 670.379 24.968V29H669.329V25.094C669.329 24.366 669.171 23.8153 668.853 23.442C668.545 23.0593 668.097 22.868 667.509 22.868C666.903 22.868 666.427 23.0687 666.081 23.47C665.745 23.8713 665.577 24.464 665.577 25.248V29H664.527V22ZM672.864 22V20.04H673.914V22H675.776V22.98H673.914V26.746C673.914 27.1753 674.003 27.488 674.18 27.684C674.367 27.88 674.6 27.9967 674.88 28.034C675.169 28.0713 675.468 28.0713 675.776 28.034V28.944C675.412 29.028 675.053 29.0513 674.698 29.014C674.353 28.9767 674.04 28.874 673.76 28.706C673.489 28.5287 673.27 28.2813 673.102 27.964C672.943 27.6467 672.864 27.2407 672.864 26.746V22.98H671.814V22H672.864ZM677.338 22H678.304L678.36 23.022C678.546 22.77 678.77 22.5553 679.032 22.378C679.302 22.2007 679.596 22.0793 679.914 22.014C680.24 21.9393 680.586 21.9347 680.95 22V23.05C680.558 22.9753 680.203 22.9753 679.886 23.05C679.578 23.1247 679.312 23.2647 679.088 23.47C678.864 23.6753 678.691 23.9367 678.57 24.254C678.448 24.562 678.388 24.9213 678.388 25.332V29H677.338V22ZM682.593 22H683.629V29H682.593V22ZM683.125 20.6C682.91 20.6 682.733 20.53 682.593 20.39C682.453 20.25 682.383 20.0773 682.383 19.872C682.383 19.6573 682.453 19.48 682.593 19.34C682.733 19.2 682.91 19.13 683.125 19.13C683.321 19.13 683.489 19.2 683.629 19.34C683.778 19.48 683.853 19.6573 683.853 19.872C683.853 20.0773 683.778 20.25 683.629 20.39C683.489 20.53 683.321 20.6 683.125 20.6ZM686.93 23.414C687.135 22.9847 687.457 22.6253 687.896 22.336C688.335 22.0467 688.89 21.902 689.562 21.902C690.206 21.902 690.766 22.0513 691.242 22.35C691.727 22.6487 692.101 23.0687 692.362 23.61C692.633 24.142 692.768 24.772 692.768 25.5C692.768 26.228 692.633 26.8627 692.362 27.404C692.091 27.9453 691.713 28.3653 691.228 28.664C690.752 28.9533 690.197 29.098 689.562 29.098C688.927 29.098 688.4 28.9627 687.98 28.692C687.56 28.4213 687.243 28.09 687.028 27.698L686.958 29H685.992V18.92H687.042V23.428L686.93 23.414ZM691.634 25.5C691.634 24.6973 691.424 24.0627 691.004 23.596C690.593 23.12 690.038 22.882 689.338 22.882C688.899 22.882 688.503 22.9893 688.148 23.204C687.803 23.4093 687.532 23.708 687.336 24.1C687.14 24.4827 687.042 24.9493 687.042 25.5C687.042 26.0507 687.14 26.522 687.336 26.914C687.532 27.306 687.803 27.6047 688.148 27.81C688.503 28.0153 688.899 28.118 689.338 28.118C690.038 28.118 690.593 27.8847 691.004 27.418C691.424 26.942 691.634 26.3027 691.634 25.5ZM700.208 29H699.256L699.186 27.992C698.972 28.3467 698.682 28.622 698.318 28.818C697.954 29.0047 697.53 29.098 697.044 29.098C696.503 29.098 696.032 28.986 695.63 28.762C695.229 28.538 694.916 28.202 694.692 27.754C694.478 27.306 694.37 26.7413 694.37 26.06V22H695.406V25.948C695.406 26.6667 695.56 27.2127 695.868 27.586C696.186 27.95 696.638 28.132 697.226 28.132C697.824 28.132 698.295 27.9407 698.64 27.558C698.995 27.166 699.172 26.578 699.172 25.794V22H700.208V29ZM702.792 22V20.04H703.842V22H705.704V22.98H703.842V26.746C703.842 27.1753 703.93 27.488 704.108 27.684C704.294 27.88 704.528 27.9967 704.808 28.034C705.097 28.0713 705.396 28.0713 705.704 28.034V28.944C705.34 29.028 704.98 29.0513 704.626 29.014C704.28 28.9767 703.968 28.874 703.688 28.706C703.417 28.5287 703.198 28.2813 703.03 27.964C702.871 27.6467 702.792 27.2407 702.792 26.746V22.98H701.742V22H702.792ZM710.29 29.098C709.627 29.098 709.034 28.9533 708.512 28.664C707.989 28.3747 707.578 27.964 707.28 27.432C706.981 26.8907 706.832 26.2513 706.832 25.514C706.832 24.7673 706.981 24.1233 707.28 23.582C707.588 23.0407 708.003 22.6253 708.526 22.336C709.058 22.0467 709.655 21.902 710.318 21.902C710.98 21.902 711.573 22.0467 712.096 22.336C712.628 22.6253 713.043 23.0407 713.342 23.582C713.65 24.114 713.804 24.7487 713.804 25.486C713.804 26.2327 713.65 26.8767 713.342 27.418C713.034 27.9593 712.614 28.3747 712.082 28.664C711.55 28.9533 710.952 29.098 710.29 29.098ZM710.276 28.104C710.686 28.104 711.074 28.0153 711.438 27.838C711.802 27.6513 712.096 27.3667 712.32 26.984C712.553 26.592 712.67 26.0973 712.67 25.5C712.67 24.8933 712.558 24.3987 712.334 24.016C712.11 23.6333 711.816 23.3533 711.452 23.176C711.097 22.9893 710.714 22.896 710.303 22.896C709.893 22.896 709.51 22.9893 709.156 23.176C708.801 23.3533 708.512 23.638 708.288 24.03C708.073 24.4127 707.966 24.9027 707.966 25.5C707.966 26.1067 708.073 26.6013 708.288 26.984C708.502 27.3667 708.782 27.6513 709.128 27.838C709.482 28.0153 709.865 28.104 710.276 28.104ZM715.523 22H716.489L716.545 23.022C716.732 22.77 716.956 22.5553 717.217 22.378C717.488 22.2007 717.782 22.0793 718.099 22.014C718.426 21.9393 718.771 21.9347 719.135 22V23.05C718.743 22.9753 718.389 22.9753 718.071 23.05C717.763 23.1247 717.497 23.2647 717.273 23.47C717.049 23.6753 716.877 23.9367 716.755 24.254C716.634 24.562 716.573 24.9213 716.573 25.332V29H715.523V22ZM721.142 26.858C721.198 27.138 721.301 27.3713 721.45 27.558C721.6 27.7353 721.791 27.8707 722.024 27.964C722.267 28.0573 722.547 28.104 722.864 28.104C723.359 28.104 723.732 28.0107 723.984 27.824C724.246 27.628 724.376 27.3853 724.376 27.096C724.376 26.8533 724.297 26.6573 724.138 26.508C723.989 26.3587 723.788 26.2373 723.536 26.144C723.284 26.0413 723.004 25.9527 722.696 25.878C722.454 25.822 722.192 25.7567 721.912 25.682C721.632 25.598 721.366 25.486 721.114 25.346C720.862 25.206 720.657 25.024 720.498 24.8C720.34 24.576 720.26 24.282 720.26 23.918C720.26 23.5167 720.368 23.1667 720.582 22.868C720.806 22.56 721.11 22.322 721.492 22.154C721.884 21.986 722.332 21.902 722.836 21.902C723.415 21.902 723.928 22.028 724.376 22.28C724.834 22.532 725.151 22.924 725.328 23.456L724.348 23.792C724.283 23.5493 724.162 23.3627 723.984 23.232C723.816 23.1013 723.625 23.0127 723.41 22.966C723.205 22.9193 723 22.896 722.794 22.896C722.374 22.896 722.034 22.98 721.772 23.148C721.52 23.3067 721.394 23.5493 721.394 23.876C721.394 24.0533 721.436 24.2027 721.52 24.324C721.604 24.436 721.721 24.5293 721.87 24.604C722.02 24.6787 722.197 24.744 722.402 24.8C722.608 24.8467 722.832 24.9027 723.074 24.968C723.345 25.0333 723.62 25.1173 723.9 25.22C724.18 25.3133 724.442 25.4393 724.684 25.598C724.927 25.7473 725.123 25.9433 725.272 26.186C725.431 26.4193 725.51 26.7133 725.51 27.068C725.51 27.4787 725.398 27.838 725.174 28.146C724.95 28.4447 724.638 28.678 724.236 28.846C723.844 29.014 723.387 29.098 722.864 29.098C722.146 29.098 721.548 28.9393 721.072 28.622C720.606 28.2953 720.293 27.8193 720.134 27.194L721.142 26.858Z" fill="#808080"/>
<path d="M487.008 43.84C487.051 43.168 487.237 42.5973 487.568 42.128C487.909 41.6587 488.357 41.3013 488.912 41.056C489.467 40.8107 490.101 40.688 490.816 40.688C491.573 40.688 492.213 40.832 492.736 41.12C493.259 41.408 493.653 41.792 493.92 42.272C494.197 42.7413 494.336 43.2533 494.336 43.808C494.336 44.2133 494.251 44.5867 494.08 44.928C493.909 45.2587 493.675 45.5413 493.376 45.776C493.088 46.0107 492.757 46.176 492.384 46.272V46.352C492.811 46.4587 493.184 46.6293 493.504 46.864C493.835 47.088 494.091 47.3813 494.272 47.744C494.453 48.096 494.544 48.5227 494.544 49.024C494.544 49.632 494.405 50.1707 494.128 50.64C493.851 51.0987 493.435 51.4613 492.88 51.728C492.336 51.984 491.659 52.112 490.848 52.112C490.069 52.112 489.387 51.9947 488.8 51.76C488.213 51.5253 487.749 51.1573 487.408 50.656C487.077 50.1547 486.891 49.504 486.848 48.704H488.384C488.437 49.3653 488.656 49.872 489.04 50.224C489.424 50.5653 490.027 50.736 490.848 50.736C491.328 50.736 491.723 50.6613 492.032 50.512C492.341 50.3627 492.565 50.1547 492.704 49.888C492.853 49.6107 492.928 49.28 492.928 48.896C492.928 48.1707 492.677 47.68 492.176 47.424C491.685 47.1573 490.939 47.024 489.936 47.024H489.536V45.664H489.952C490.56 45.6533 491.067 45.5893 491.472 45.472C491.888 45.3547 492.197 45.1787 492.4 44.944C492.613 44.6987 492.72 44.3787 492.72 43.984C492.72 43.4507 492.56 42.9973 492.24 42.624C491.92 42.2507 491.429 42.064 490.768 42.064C490.32 42.064 489.941 42.144 489.632 42.304C489.323 42.4533 489.077 42.6613 488.896 42.928C488.715 43.1947 488.603 43.4987 488.56 43.84H487.008ZM497.531 52.096C497.243 52.096 496.998 51.9947 496.795 51.792C496.592 51.5893 496.491 51.344 496.491 51.056C496.491 50.7573 496.592 50.5067 496.795 50.304C496.998 50.1013 497.243 50 497.531 50C497.819 50 498.064 50.1013 498.267 50.304C498.47 50.5067 498.571 50.7573 498.571 51.056C498.571 51.344 498.47 51.5893 498.267 51.792C498.064 51.9947 497.819 52.096 497.531 52.096ZM501.676 42.144H500.156V40.8H503.276V52H501.676V42.144ZM511.059 49.44H505.187V48.272L510.707 40.8H512.643V48.08H514.179V49.44H512.643V52H511.059V49.44ZM511.091 48.08V42.448L507.011 48.08H511.091Z" fill="black"/>
<path d="M493.196 19.2V20.04L489.304 29H488.17L492.118 20.18H486.602V19.2H493.196ZM500.261 23.414L500.149 23.428V18.92H501.199V29H500.233L500.163 27.698C499.949 28.09 499.627 28.4213 499.197 28.692C498.777 28.9627 498.255 29.098 497.629 29.098C496.985 29.098 496.421 28.9533 495.935 28.664C495.459 28.3653 495.086 27.9453 494.815 27.404C494.554 26.8627 494.423 26.228 494.423 25.5C494.423 24.772 494.554 24.142 494.815 23.61C495.086 23.0687 495.459 22.6487 495.935 22.35C496.421 22.0513 496.985 21.902 497.629 21.902C498.292 21.902 498.843 22.0467 499.281 22.336C499.72 22.6253 500.047 22.9847 500.261 23.414ZM495.557 25.5C495.557 26.3027 495.763 26.942 496.173 27.418C496.584 27.8847 497.144 28.118 497.853 28.118C498.292 28.118 498.684 28.0153 499.029 27.81C499.375 27.6047 499.645 27.306 499.841 26.914C500.047 26.522 500.149 26.0507 500.149 25.5C500.149 24.9493 500.047 24.4827 499.841 24.1C499.645 23.708 499.375 23.4093 499.029 23.204C498.684 22.9893 498.292 22.882 497.853 22.882C497.153 22.882 496.593 23.12 496.173 23.596C495.763 24.0627 495.557 24.6973 495.557 25.5ZM507.73 29L507.646 27.74C507.45 28.1693 507.16 28.5053 506.778 28.748C506.395 28.9813 505.91 29.098 505.322 29.098C504.818 29.098 504.388 29.0187 504.034 28.86C503.679 28.7013 503.404 28.4773 503.208 28.188C503.021 27.8893 502.928 27.5393 502.928 27.138C502.928 26.55 503.147 26.0693 503.586 25.696C504.024 25.3133 504.659 25.08 505.49 24.996L507.646 24.758V24.198C507.646 23.806 507.501 23.4933 507.212 23.26C506.922 23.0173 506.53 22.896 506.036 22.896C505.55 22.896 505.144 23.008 504.818 23.232C504.5 23.456 504.281 23.778 504.16 24.198L503.208 23.862C503.394 23.246 503.735 22.7653 504.23 22.42C504.734 22.0747 505.345 21.902 506.064 21.902C506.894 21.902 507.538 22.1167 507.996 22.546C508.462 22.966 508.696 23.54 508.696 24.268V29H507.73ZM507.646 25.654L505.476 25.906C505.009 25.962 504.654 26.0927 504.412 26.298C504.169 26.494 504.048 26.7553 504.048 27.082C504.048 27.4087 504.164 27.67 504.398 27.866C504.64 28.062 504.986 28.16 505.434 28.16C505.947 28.16 506.367 28.0573 506.694 27.852C507.02 27.6467 507.258 27.3713 507.408 27.026C507.566 26.6713 507.646 26.2887 507.646 25.878V25.654ZM515.49 22H516.582L512.578 31.8H511.57L512.76 28.902L509.932 22H511.08L513.32 27.656L515.49 22ZM518.496 26.858C518.552 27.138 518.654 27.3713 518.804 27.558C518.953 27.7353 519.144 27.8707 519.378 27.964C519.62 28.0573 519.9 28.104 520.218 28.104C520.712 28.104 521.086 28.0107 521.338 27.824C521.599 27.628 521.73 27.3853 521.73 27.096C521.73 26.8533 521.65 26.6573 521.492 26.508C521.342 26.3587 521.142 26.2373 520.89 26.144C520.638 26.0413 520.358 25.9527 520.05 25.878C519.807 25.822 519.546 25.7567 519.266 25.682C518.986 25.598 518.72 25.486 518.468 25.346C518.216 25.206 518.01 25.024 517.852 24.8C517.693 24.576 517.614 24.282 517.614 23.918C517.614 23.5167 517.721 23.1667 517.936 22.868C518.16 22.56 518.463 22.322 518.846 22.154C519.238 21.986 519.686 21.902 520.19 21.902C520.768 21.902 521.282 22.028 521.73 22.28C522.187 22.532 522.504 22.924 522.682 23.456L521.702 23.792C521.636 23.5493 521.515 23.3627 521.338 23.232C521.17 23.1013 520.978 23.0127 520.764 22.966C520.558 22.9193 520.353 22.896 520.148 22.896C519.728 22.896 519.387 22.98 519.126 23.148C518.874 23.3067 518.748 23.5493 518.748 23.876C518.748 24.0533 518.79 24.2027 518.874 24.324C518.958 24.436 519.074 24.5293 519.224 24.604C519.373 24.6787 519.55 24.744 519.756 24.8C519.961 24.8467 520.185 24.9027 520.428 24.968C520.698 25.0333 520.974 25.1173 521.254 25.22C521.534 25.3133 521.795 25.4393 522.038 25.598C522.28 25.7473 522.476 25.9433 522.626 26.186C522.784 26.4193 522.864 26.7133 522.864 27.068C522.864 27.4787 522.752 27.838 522.528 28.146C522.304 28.4447 521.991 28.678 521.59 28.846C521.198 29.014 520.74 29.098 520.218 29.098C519.499 29.098 518.902 28.9393 518.426 28.622C517.959 28.2953 517.646 27.8193 517.488 27.194L518.496 26.858ZM536.274 22.14C535.919 21.44 535.448 20.9267 534.86 20.6C534.272 20.264 533.619 20.096 532.9 20.096C532.191 20.096 531.551 20.2593 530.982 20.586C530.413 20.9127 529.965 21.3747 529.638 21.972C529.311 22.5693 529.148 23.2787 529.148 24.1C529.148 24.912 529.311 25.6167 529.638 26.214C529.965 26.8113 530.413 27.2733 530.982 27.6C531.551 27.9267 532.191 28.09 532.9 28.09C533.432 28.09 533.927 28.0013 534.384 27.824C534.841 27.6373 535.238 27.376 535.574 27.04C535.91 26.6947 536.167 26.284 536.344 25.808V24.674H532.984V23.764H537.478V25.864C537.263 26.4893 536.937 27.0447 536.498 27.53C536.059 28.0153 535.532 28.398 534.916 28.678C534.3 28.958 533.628 29.098 532.9 29.098C532.209 29.098 531.565 28.9767 530.968 28.734C530.38 28.4913 529.862 28.1507 529.414 27.712C528.975 27.264 528.63 26.7367 528.378 26.13C528.135 25.514 528.014 24.8373 528.014 24.1C528.014 23.3627 528.135 22.6907 528.378 22.084C528.63 21.468 528.975 20.9407 529.414 20.502C529.862 20.054 530.38 19.7087 530.968 19.466C531.565 19.2233 532.209 19.102 532.9 19.102C533.544 19.102 534.146 19.2093 534.706 19.424C535.275 19.6293 535.779 19.9327 536.218 20.334C536.657 20.726 537.002 21.2067 537.254 21.776L536.274 22.14ZM543.646 29L543.562 27.74C543.366 28.1693 543.076 28.5053 542.694 28.748C542.311 28.9813 541.826 29.098 541.238 29.098C540.734 29.098 540.304 29.0187 539.95 28.86C539.595 28.7013 539.32 28.4773 539.124 28.188C538.937 27.8893 538.844 27.5393 538.844 27.138C538.844 26.55 539.063 26.0693 539.502 25.696C539.94 25.3133 540.575 25.08 541.406 24.996L543.562 24.758V24.198C543.562 23.806 543.417 23.4933 543.128 23.26C542.838 23.0173 542.446 22.896 541.952 22.896C541.466 22.896 541.06 23.008 540.734 23.232C540.416 23.456 540.197 23.778 540.076 24.198L539.124 23.862C539.31 23.246 539.651 22.7653 540.146 22.42C540.65 22.0747 541.261 21.902 541.98 21.902C542.81 21.902 543.454 22.1167 543.912 22.546C544.378 22.966 544.612 23.54 544.612 24.268V29H543.646ZM543.562 25.654L541.392 25.906C540.925 25.962 540.57 26.0927 540.328 26.298C540.085 26.494 539.964 26.7553 539.964 27.082C539.964 27.4087 540.08 27.67 540.314 27.866C540.556 28.062 540.902 28.16 541.35 28.16C541.863 28.16 542.283 28.0573 542.61 27.852C542.936 27.6467 543.174 27.3713 543.324 27.026C543.482 26.6713 543.562 26.2887 543.562 25.878V25.654ZM547.234 26.858C547.29 27.138 547.393 27.3713 547.542 27.558C547.691 27.7353 547.883 27.8707 548.116 27.964C548.359 28.0573 548.639 28.104 548.956 28.104C549.451 28.104 549.824 28.0107 550.076 27.824C550.337 27.628 550.468 27.3853 550.468 27.096C550.468 26.8533 550.389 26.6573 550.23 26.508C550.081 26.3587 549.88 26.2373 549.628 26.144C549.376 26.0413 549.096 25.9527 548.788 25.878C548.545 25.822 548.284 25.7567 548.004 25.682C547.724 25.598 547.458 25.486 547.206 25.346C546.954 25.206 546.749 25.024 546.59 24.8C546.431 24.576 546.352 24.282 546.352 23.918C546.352 23.5167 546.459 23.1667 546.674 22.868C546.898 22.56 547.201 22.322 547.584 22.154C547.976 21.986 548.424 21.902 548.928 21.902C549.507 21.902 550.02 22.028 550.468 22.28C550.925 22.532 551.243 22.924 551.42 23.456L550.44 23.792C550.375 23.5493 550.253 23.3627 550.076 23.232C549.908 23.1013 549.717 23.0127 549.502 22.966C549.297 22.9193 549.091 22.896 548.886 22.896C548.466 22.896 548.125 22.98 547.864 23.148C547.612 23.3067 547.486 23.5493 547.486 23.876C547.486 24.0533 547.528 24.2027 547.612 24.324C547.696 24.436 547.813 24.5293 547.962 24.604C548.111 24.6787 548.289 24.744 548.494 24.8C548.699 24.8467 548.923 24.9027 549.166 24.968C549.437 25.0333 549.712 25.1173 549.992 25.22C550.272 25.3133 550.533 25.4393 550.776 25.598C551.019 25.7473 551.215 25.9433 551.364 26.186C551.523 26.4193 551.602 26.7133 551.602 27.068C551.602 27.4787 551.49 27.838 551.266 28.146C551.042 28.4447 550.729 28.678 550.328 28.846C549.936 29.014 549.479 29.098 548.956 29.098C548.237 29.098 547.64 28.9393 547.164 28.622C546.697 28.2953 546.385 27.8193 546.226 27.194L547.234 26.858ZM561.106 20.18H560.644L557.41 29H556.276L559.86 19.2H561.876L565.446 29H564.312L561.106 20.18ZM558.026 25.444H563.738V26.424H558.026V25.444ZM566.159 19.2H573.509V20.18H570.401V29H569.281V20.18H566.159V19.2ZM575.292 19.2H576.412V23.526H581.662V19.2H582.782V29H581.662V24.506H576.412V29H575.292V19.2Z" fill="#808080"/>
</svg>
