<svg width="24" height="24" viewBox="0 0 24 24" fill="none" xmlns="http://www.w3.org/2000/svg">
<path d="M21.8369 2L13.123 8.87748L14.7435 4.82436L21.8369 2Z" fill="#E17726"/>
<path d="M2.49097 2.00806L9.56542 4.82483L11.1041 8.9311L2.49097 2.00806Z" fill="#E27625"/>
<path d="M18.3301 16.6265L22.1815 16.7046L20.8355 21.5821L16.136 20.2019L18.3301 16.6265Z" fill="#E27625"/>
<path d="M5.97748 16.6265L8.16351 20.2019L3.47185 21.5822L2.13403 16.7047L5.97748 16.6265Z" fill="#E27625"/>
<path d="M10.8951 7.88513L11.0525 13.3076L6.34277 13.079L7.68242 10.9232L7.69937 10.9024L10.8951 7.88513Z" fill="#E27625"/>
<path d="M13.3638 7.82465L16.6083 10.9027L16.6251 10.9233L17.9647 13.0791L13.2561 13.3076L13.3638 7.82465Z" fill="#E27625"/>
<path d="M8.30139 16.6422L10.873 18.7794L7.88574 20.3179L8.30139 16.6422Z" fill="#E27625"/>
<path d="M16.0067 16.6418L16.4137 20.3179L13.4348 18.7793L16.0067 16.6418Z" fill="#E27625"/>
<path d="M13.5007 18.578L16.5236 20.1393L13.7117 21.5648L13.7409 20.6227L13.5007 18.578Z" fill="#D5BFB2"/>
<path d="M10.8062 18.5787L10.5755 20.6072L10.5944 21.5637L7.77588 20.1393L10.8062 18.5787Z" fill="#D5BFB2"/>
<path d="M9.93322 14.0153L10.7232 15.7861L8.03369 14.9458L9.93322 14.0153Z" fill="#233447"/>
<path d="M14.3742 14.0155L16.2827 14.9457L13.5845 15.7859L14.3742 14.0155Z" fill="#233447"/>
<path d="M8.50699 16.6241L8.07225 20.4352L5.74219 16.7075L8.50699 16.6241Z" fill="#CC6228"/>
<path d="M15.801 16.6241L18.5659 16.7075L16.2271 20.4353L15.801 16.6241Z" fill="#CC6228"/>
<path d="M18.033 12.8635L16.0208 15.0509L14.4694 14.2947L13.7267 15.9603L13.2397 13.0961L18.033 12.8635Z" fill="#CC6228"/>
<path d="M6.27368 12.8635L11.0677 13.0962L10.5808 15.9603L9.8379 14.295L8.2947 15.051L6.27368 12.8635Z" fill="#CC6228"/>
<path d="M6.13818 12.4147L8.41473 14.8787L8.49363 17.3113L6.13818 12.4147Z" fill="#E27525"/>
<path d="M18.1719 12.4102L15.8123 17.3156L15.9011 14.8787L18.1719 12.4102Z" fill="#E27525"/>
<path d="M10.9566 12.5647L11.0482 13.1799L11.2746 14.7123L11.1291 19.4191L10.4409 15.6381L10.4407 15.599L10.9566 12.5647Z" fill="#E27525"/>
<path d="M13.35 12.5562L13.8673 15.599L13.8671 15.6381L13.1772 19.4285L13.1499 18.4805L13.0422 14.6844L13.35 12.5562Z" fill="#E27525"/>
<path d="M16.1035 14.7808L16.0264 16.8943L13.6249 18.8902L13.1394 18.5243L13.6836 15.5344L16.1035 14.7808Z" fill="#F5841F"/>
<path d="M8.21265 14.7809L10.6242 15.5345L11.1683 18.5243L10.6829 18.8902L8.28119 16.8942L8.21265 14.7809Z" fill="#F5841F"/>
<path d="M7.31641 19.6726L10.3889 21.2255L10.3759 20.5624L10.633 20.3217H13.6739L13.9403 20.5616L13.9206 21.2242L16.9736 19.6765L15.488 20.986L13.6916 22.3021H10.6083L8.8131 20.9806L7.31641 19.6726Z" fill="#C0AC9D"/>
<path d="M13.2805 18.3713L13.7149 18.6987L13.9695 20.8652L13.6011 20.5334H10.7076L10.3462 20.8719L10.5924 18.6988L11.027 18.3713H13.2805Z" fill="#161616"/>
<path d="M21.2618 2.19037L22.3077 5.53754L21.6545 8.92185L22.1197 9.30463L21.4902 9.81687L21.9633 10.2066L21.3369 10.8151L21.7214 11.1121L20.7008 12.3836L16.5148 11.0835L16.4785 11.0628L13.4619 8.34842L21.2618 2.19037Z" fill="#763E1A"/>
<path d="M3.04601 2.19037L10.8459 8.34842L7.82929 11.0628L7.79302 11.0835L3.6069 12.3836L2.58632 11.1121L2.97059 10.8153L2.34448 10.2066L2.81664 9.8173L2.1778 9.30359L2.6605 8.92058L2 5.53767L3.04601 2.19037Z" fill="#763E1A"/>
<path d="M16.3098 10.7992L20.7452 12.1766L22.1862 16.9139L18.3846 16.9139L15.7651 16.9491L17.6701 12.9884L16.3098 10.7992Z" fill="#F5841F"/>
<path d="M7.9978 10.7992L6.63725 12.9884L8.54247 16.9491L5.9243 16.9139H2.12939L3.56231 12.1767L7.9978 10.7992Z" fill="#F5841F"/>
<path d="M14.9608 4.80176L13.7202 8.37581L13.4569 13.204L13.3562 14.7173L13.3482 18.5832H10.9595L10.9518 14.7246L10.8507 13.2027L10.5873 8.37581L9.34692 4.80176H14.9608Z" fill="#F5841F"/>
</svg>
