<svg width="220" height="173" viewBox="0 0 220 173" fill="none" xmlns="http://www.w3.org/2000/svg">
<rect width="220" height="173" rx="8" fill="#D9D9D9"/>
<path d="M24.652 18.196C24.2973 17.5333 23.8447 17.0527 23.294 16.754C22.7527 16.4553 22.16 16.306 21.516 16.306C20.8627 16.306 20.2653 16.4647 19.724 16.782C19.1827 17.0993 18.7533 17.5427 18.436 18.112C18.128 18.672 17.974 19.3347 17.974 20.1C17.974 20.856 18.128 21.5187 18.436 22.088C18.744 22.6573 19.164 23.1007 19.696 23.418C20.2373 23.7353 20.8393 23.894 21.502 23.894C21.978 23.894 22.426 23.81 22.846 23.642C23.266 23.474 23.63 23.2407 23.938 22.942C24.2553 22.6433 24.5027 22.2887 24.68 21.878V20.814H21.6V19.666H26.094V21.948C25.87 22.5453 25.534 23.082 25.086 23.558C24.6473 24.034 24.12 24.412 23.504 24.692C22.8973 24.9627 22.23 25.098 21.502 25.098C20.8113 25.098 20.1627 24.9767 19.556 24.734C18.9587 24.4913 18.436 24.1507 17.988 23.712C17.54 23.264 17.19 22.7367 16.938 22.13C16.686 21.514 16.56 20.8373 16.56 20.1C16.56 19.372 16.686 18.7047 16.938 18.098C17.19 17.482 17.54 16.95 17.988 16.502C18.436 16.054 18.9587 15.7087 19.556 15.466C20.1627 15.2233 20.8113 15.102 21.502 15.102C22.1273 15.102 22.7247 15.2047 23.294 15.41C23.8633 15.6153 24.372 15.914 24.82 16.306C25.268 16.698 25.618 17.1787 25.87 17.748L24.652 18.196ZM32.0241 25L31.9121 23.978C31.6974 24.3327 31.4174 24.608 31.0721 24.804C30.7361 24.9907 30.2974 25.084 29.7561 25.084C29.2521 25.084 28.8228 25.0047 28.4681 24.846C28.1134 24.678 27.8381 24.4493 27.6421 24.16C27.4554 23.8613 27.3621 23.516 27.3621 23.124C27.3621 22.536 27.5814 22.0507 28.0201 21.668C28.4588 21.276 29.0934 21.0333 29.9241 20.94L31.9121 20.716V20.17C31.9121 19.8713 31.7908 19.6193 31.5481 19.414C31.3054 19.1993 30.9554 19.092 30.4981 19.092C30.0688 19.092 29.7048 19.1947 29.4061 19.4C29.1074 19.596 28.9068 19.89 28.8041 20.282L27.6281 19.862C27.8054 19.246 28.1508 18.7653 28.6641 18.42C29.1868 18.0747 29.8168 17.902 30.5541 17.902C31.4314 17.902 32.0988 18.1213 32.5561 18.56C33.0134 18.9987 33.2421 19.5773 33.2421 20.296V25H32.0241ZM31.9121 21.794L29.9941 22.032C29.5834 22.088 29.2754 22.2047 29.0701 22.382C28.8648 22.55 28.7621 22.774 28.7621 23.054C28.7621 23.3153 28.8601 23.5347 29.0561 23.712C29.2614 23.88 29.5461 23.964 29.9101 23.964C30.3581 23.964 30.7314 23.88 31.0301 23.712C31.3288 23.544 31.5481 23.3107 31.6881 23.012C31.8374 22.704 31.9121 22.3493 31.9121 21.948V21.794ZM35.9209 22.788C35.9862 23.068 36.0982 23.2873 36.2569 23.446C36.4156 23.6047 36.6022 23.7213 36.8169 23.796C37.0409 23.8613 37.2742 23.894 37.5169 23.894C37.9369 23.894 38.2636 23.81 38.4969 23.642C38.7302 23.474 38.8469 23.264 38.8469 23.012C38.8469 22.7973 38.7722 22.6293 38.6229 22.508C38.4829 22.3773 38.2916 22.2747 38.0489 22.2C37.8156 22.1253 37.5636 22.0553 37.2929 21.99C37.0502 21.9247 36.7842 21.85 36.4949 21.766C36.2149 21.682 35.9489 21.57 35.6969 21.43C35.4542 21.2807 35.2536 21.094 35.0949 20.87C34.9362 20.6367 34.8569 20.3427 34.8569 19.988C34.8569 19.568 34.9689 19.204 35.1929 18.896C35.4262 18.5787 35.7436 18.336 36.1449 18.168C36.5556 17.9907 37.0176 17.902 37.5309 17.902C38.1282 17.902 38.6509 18.0327 39.0989 18.294C39.5562 18.546 39.8876 18.9287 40.0929 19.442L38.9029 19.834C38.8376 19.6567 38.7302 19.512 38.5809 19.4C38.4316 19.288 38.2589 19.2133 38.0629 19.176C37.8762 19.1293 37.6896 19.106 37.5029 19.106C37.1482 19.106 36.8542 19.176 36.6209 19.316C36.3876 19.456 36.2709 19.6613 36.2709 19.932C36.2709 20.0813 36.3082 20.2073 36.3829 20.31C36.4576 20.4033 36.5602 20.4827 36.6909 20.548C36.8309 20.604 36.9942 20.6553 37.1809 20.702C37.3676 20.7487 37.5682 20.8 37.7829 20.856C38.0629 20.94 38.3476 21.0333 38.6369 21.136C38.9262 21.2293 39.1922 21.3507 39.4349 21.5C39.6776 21.6493 39.8736 21.8453 40.0229 22.088C40.1722 22.3307 40.2516 22.6293 40.2609 22.984C40.2609 23.3947 40.1442 23.7587 39.9109 24.076C39.6869 24.3933 39.3649 24.6453 38.9449 24.832C38.5342 25.0093 38.0442 25.098 37.4749 25.098C36.7842 25.098 36.1962 24.944 35.7109 24.636C35.2256 24.328 34.8989 23.852 34.7309 23.208L35.9209 22.788Z" fill="#808080"/>
<path d="M17.416 55.6C17.416 54.352 17.512 53.208 17.704 52.168C17.896 51.112 18.232 50.208 18.712 49.456C19.192 48.688 19.832 48.096 20.632 47.68C21.448 47.248 22.472 47.032 23.704 47.032C24.936 47.032 25.952 47.248 26.752 47.68C27.552 48.096 28.192 48.688 28.672 49.456C29.152 50.208 29.488 51.112 29.68 52.168C29.872 53.208 29.968 54.352 29.968 55.6C29.968 56.864 29.872 58.024 29.68 59.08C29.488 60.136 29.152 61.04 28.672 61.792C28.192 62.544 27.552 63.128 26.752 63.544C25.952 63.96 24.936 64.168 23.704 64.168C22.472 64.168 21.448 63.96 20.632 63.544C19.832 63.128 19.192 62.544 18.712 61.792C18.232 61.04 17.896 60.136 17.704 59.08C17.512 58.024 17.416 56.864 17.416 55.6ZM27.088 55.6C27.088 54.8 27.056 54.032 26.992 53.296C26.928 52.56 26.784 51.904 26.56 51.328C26.336 50.736 26 50.28 25.552 49.96C25.104 49.624 24.488 49.456 23.704 49.456C22.92 49.456 22.296 49.624 21.832 49.96C21.384 50.28 21.048 50.736 20.824 51.328C20.6 51.904 20.456 52.56 20.392 53.296C20.328 54.032 20.296 54.8 20.296 55.6C20.296 56.448 20.328 57.248 20.392 58C20.456 58.736 20.6 59.384 20.824 59.944C21.048 60.504 21.384 60.944 21.832 61.264C22.296 61.584 22.92 61.744 23.704 61.744C24.488 61.744 25.104 61.584 25.552 61.264C26 60.944 26.336 60.504 26.56 59.944C26.784 59.384 26.928 58.736 26.992 58C27.056 57.248 27.088 56.448 27.088 55.6ZM34.495 64.168C33.983 64.168 33.551 64 33.199 63.664C32.863 63.312 32.695 62.88 32.695 62.368C32.695 61.872 32.863 61.456 33.199 61.12C33.551 60.768 33.983 60.592 34.495 60.592C34.991 60.592 35.415 60.768 35.767 61.12C36.119 61.456 36.295 61.872 36.295 62.368C36.295 62.88 36.119 63.312 35.767 63.664C35.415 64 34.991 64.168 34.495 64.168ZM47.1134 60.304H38.4734V58.24L46.5134 47.2H49.9694V57.928H52.1294V60.304H49.9694V64H47.1134V60.304ZM47.2094 57.928V50.128L41.7134 57.928H47.2094ZM65.6965 47.2V49.576H57.9445V54.04C58.2645 53.608 58.7045 53.264 59.2645 53.008C59.8405 52.752 60.5205 52.624 61.3045 52.624C62.3285 52.624 63.1925 52.808 63.8965 53.176C64.6165 53.528 65.1925 53.984 65.6245 54.544C66.0725 55.104 66.3925 55.712 66.5845 56.368C66.7925 57.008 66.8965 57.624 66.8965 58.216C66.8965 59.352 66.6565 60.368 66.1765 61.264C65.6965 62.16 65.0005 62.872 64.0885 63.4C63.1925 63.912 62.1125 64.168 60.8485 64.168C59.6325 64.168 58.5925 63.968 57.7285 63.568C56.8645 63.152 56.1765 62.584 55.6645 61.864C55.1685 61.144 54.8565 60.32 54.7285 59.392H57.4885C57.6645 60.112 58.0405 60.688 58.6165 61.12C59.1925 61.536 59.9365 61.744 60.8485 61.744C61.5685 61.744 62.1605 61.6 62.6245 61.312C63.0885 61.024 63.4325 60.624 63.6565 60.112C63.8805 59.6 63.9925 58.992 63.9925 58.288C63.9925 57.264 63.7205 56.464 63.1765 55.888C62.6325 55.296 61.8565 55 60.8485 55C60.0645 55 59.4085 55.2 58.8805 55.6C58.3685 56 58.0085 56.52 57.8005 57.16H55.0885V47.2H65.6965Z" fill="black"/>
<path d="M82.888 56.224C82.4827 55.4667 81.9653 54.9173 81.336 54.576C80.7173 54.2347 80.04 54.064 79.304 54.064C78.5573 54.064 77.8747 54.2453 77.256 54.608C76.6373 54.9707 76.1467 55.4773 75.784 56.128C75.432 56.768 75.256 57.5253 75.256 58.4C75.256 59.264 75.432 60.0213 75.784 60.672C76.136 61.3227 76.616 61.8293 77.224 62.192C77.8427 62.5547 78.5307 62.736 79.288 62.736C79.832 62.736 80.344 62.64 80.824 62.448C81.304 62.256 81.72 61.9893 82.072 61.648C82.4347 61.3067 82.7173 60.9013 82.92 60.432V59.216H79.4V57.904H84.536V60.512C84.28 61.1947 83.896 61.808 83.384 62.352C82.8827 62.896 82.28 63.328 81.576 63.648C80.8827 63.9573 80.12 64.112 79.288 64.112C78.4987 64.112 77.7573 63.9733 77.064 63.696C76.3813 63.4187 75.784 63.0293 75.272 62.528C74.76 62.016 74.36 61.4133 74.072 60.72C73.784 60.016 73.64 59.2427 73.64 58.4C73.64 57.568 73.784 56.8053 74.072 56.112C74.36 55.408 74.76 54.8 75.272 54.288C75.784 53.776 76.3813 53.3813 77.064 53.104C77.7573 52.8267 78.4987 52.688 79.288 52.688C80.0027 52.688 80.6853 52.8053 81.336 53.04C81.9867 53.2747 82.568 53.616 83.08 54.064C83.592 54.512 83.992 55.0613 84.28 55.712L82.888 56.224ZM91.1213 54.144H90.5613L87.0413 64H85.4093L89.4413 52.8H92.2093L96.2413 64H94.6093L91.1213 54.144ZM87.4733 59.808H94.0013V61.152H87.4733V59.808ZM98.5834 61.04C98.6474 61.3387 98.7754 61.616 98.9674 61.872C99.17 62.128 99.442 62.336 99.7834 62.496C100.125 62.656 100.546 62.736 101.047 62.736C101.794 62.736 102.343 62.5653 102.695 62.224C103.058 61.872 103.239 61.4613 103.239 60.992C103.239 60.608 103.127 60.2933 102.903 60.048C102.69 59.792 102.391 59.5787 102.007 59.408C101.634 59.2267 101.202 59.0667 100.711 58.928C100.285 58.8 99.8634 58.6667 99.4474 58.528C99.042 58.3787 98.674 58.1973 98.3434 57.984C98.0127 57.76 97.7514 57.4773 97.5594 57.136C97.3674 56.784 97.2714 56.3467 97.2714 55.824C97.2714 55.1733 97.426 54.6133 97.7354 54.144C98.0447 53.6747 98.4767 53.3173 99.0314 53.072C99.5967 52.816 100.247 52.688 100.983 52.688C101.602 52.688 102.157 52.7787 102.647 52.96C103.138 53.1307 103.549 53.3813 103.879 53.712C104.221 54.032 104.471 54.4213 104.631 54.88L103.175 55.408C103.111 55.1733 102.978 54.9547 102.775 54.752C102.573 54.5387 102.317 54.368 102.007 54.24C101.698 54.112 101.351 54.048 100.967 54.048C100.573 54.0373 100.215 54.1013 99.8954 54.24C99.586 54.368 99.3354 54.5547 99.1434 54.8C98.962 55.0453 98.8714 55.3387 98.8714 55.68C98.8714 56.0533 98.978 56.3467 99.1914 56.56C99.4047 56.7733 99.6874 56.9493 100.039 57.088C100.402 57.2267 100.797 57.36 101.223 57.488C101.671 57.6267 102.109 57.776 102.535 57.936C102.962 58.096 103.346 58.2987 103.687 58.544C104.039 58.7893 104.322 59.0987 104.535 59.472C104.749 59.8347 104.855 60.2933 104.855 60.848C104.855 61.4453 104.717 61.9893 104.439 62.48C104.162 62.9707 103.741 63.3653 103.175 63.664C102.621 63.9627 101.922 64.112 101.079 64.112C100.386 64.112 99.762 64.0053 99.2074 63.792C98.6527 63.5787 98.194 63.2853 97.8314 62.912C97.4794 62.528 97.2447 62.0853 97.1274 61.584L98.5834 61.04Z" fill="black"/>
<path d="M16.896 82.616C17.0453 81.7627 17.3227 81.1387 17.728 80.744C18.144 80.3493 18.656 80.152 19.264 80.152C19.5627 80.152 19.8293 80.2053 20.064 80.312C20.2987 80.4187 20.5173 80.5467 20.72 80.696C20.9227 80.8347 21.1253 80.9573 21.328 81.064C21.5307 81.16 21.744 81.208 21.968 81.208C22.2347 81.208 22.4693 81.1227 22.672 80.952C22.8747 80.7707 22.9973 80.5147 23.04 80.184H24.224C24.0747 81.0373 23.792 81.6613 23.376 82.056C22.96 82.44 22.4533 82.632 21.856 82.632C21.536 82.632 21.2587 82.584 21.024 82.488C20.8 82.3813 20.5867 82.2587 20.384 82.12C20.1813 81.9707 19.9787 81.8427 19.776 81.736C19.584 81.6293 19.3707 81.576 19.136 81.576C18.8693 81.576 18.6293 81.672 18.416 81.864C18.2133 82.0453 18.0907 82.296 18.048 82.616H16.896ZM26.1174 81.4C26.1174 80.568 26.1814 79.8053 26.3094 79.112C26.4374 78.408 26.6507 77.8053 26.9494 77.304C27.248 76.792 27.664 76.3973 28.1974 76.12C28.7307 75.832 29.3974 75.688 30.1974 75.688C31.008 75.688 31.6747 75.832 32.1974 76.12C32.72 76.3973 33.1307 76.792 33.4294 77.304C33.7387 77.8053 33.952 78.408 34.0694 79.112C34.1974 79.8053 34.2614 80.568 34.2614 81.4C34.2614 82.2427 34.1974 83.016 34.0694 83.72C33.952 84.4133 33.7387 85.016 33.4294 85.528C33.1307 86.0293 32.72 86.4187 32.1974 86.696C31.6747 86.9733 31.008 87.112 30.1974 87.112C29.3974 87.112 28.7307 86.9733 28.1974 86.696C27.664 86.4187 27.248 86.0293 26.9494 85.528C26.6507 85.016 26.4374 84.4133 26.3094 83.72C26.1814 83.016 26.1174 82.2427 26.1174 81.4ZM32.6454 81.4C32.6454 80.824 32.6187 80.2747 32.5654 79.752C32.512 79.2293 32.4054 78.7653 32.2454 78.36C32.096 77.9547 31.856 77.64 31.5254 77.416C31.1947 77.1813 30.752 77.064 30.1974 77.064C29.6427 77.064 29.2 77.1813 28.8694 77.416C28.5387 77.64 28.2934 77.9547 28.1334 78.36C27.9734 78.7653 27.8667 79.2293 27.8134 79.752C27.7707 80.2747 27.7494 80.824 27.7494 81.4C27.7494 82.008 27.7707 82.5733 27.8134 83.096C27.8667 83.6187 27.9734 84.0773 28.1334 84.472C28.2934 84.8667 28.5387 85.176 28.8694 85.4C29.2 85.624 29.6427 85.736 30.1974 85.736C30.752 85.736 31.1947 85.624 31.5254 85.4C31.856 85.176 32.096 84.8667 32.2454 84.472C32.4054 84.0773 32.512 83.6187 32.5654 83.096C32.6187 82.5733 32.6454 82.008 32.6454 81.4ZM37.2496 87.096C36.9616 87.096 36.7163 86.9947 36.5136 86.792C36.311 86.5893 36.2096 86.344 36.2096 86.056C36.2096 85.7573 36.311 85.5067 36.5136 85.304C36.7163 85.1013 36.9616 85 37.2496 85C37.5376 85 37.783 85.1013 37.9856 85.304C38.1883 85.5067 38.2896 85.7573 38.2896 86.056C38.2896 86.344 38.1883 86.5893 37.9856 86.792C37.783 86.9947 37.5376 87.096 37.2496 87.096ZM41.3944 77.144H39.8744V75.8H42.9944V87H41.3944V77.144ZM45.1296 85.832L48.4256 82.76C49.055 82.184 49.551 81.688 49.9136 81.272C50.2763 80.856 50.5376 80.472 50.6976 80.12C50.8576 79.7573 50.9376 79.384 50.9376 79C50.9376 78.4347 50.7723 77.9707 50.4416 77.608C50.1216 77.2453 49.599 77.064 48.8736 77.064C48.415 77.064 48.0256 77.1653 47.7056 77.368C47.3856 77.5707 47.1403 77.8587 46.9696 78.232C46.799 78.5947 46.7083 79.0213 46.6976 79.512H45.1616C45.183 78.6587 45.359 77.9493 45.6896 77.384C46.0203 76.8187 46.463 76.3973 47.0176 76.12C47.583 75.832 48.207 75.688 48.8896 75.688C49.6576 75.688 50.3136 75.8267 50.8576 76.104C51.4123 76.3813 51.8336 76.7707 52.1216 77.272C52.4096 77.7627 52.5536 78.3387 52.5536 79C52.5536 79.48 52.463 79.9493 52.2816 80.408C52.111 80.856 51.8123 81.3413 51.3856 81.864C50.959 82.376 50.3776 82.9733 49.6416 83.656L47.4656 85.656H52.8576V87H45.1296V85.832ZM60.3401 84.44H54.4681V83.272L59.9881 75.8H61.9241V83.08H63.4601V84.44H61.9241V87H60.3401V84.44ZM60.3721 83.08V77.448L56.2921 83.08H60.3721ZM72.9093 74.6H73.8373V88.2H72.9093V74.6ZM71.0053 84.04C71.0693 84.3387 71.1973 84.616 71.3893 84.872C71.5919 85.128 71.8639 85.336 72.2053 85.496C72.5466 85.656 72.9679 85.736 73.4693 85.736C74.2159 85.736 74.7653 85.5653 75.1173 85.224C75.4799 84.872 75.6613 84.4613 75.6613 83.992C75.6613 83.608 75.5493 83.2933 75.3253 83.048C75.1119 82.792 74.8133 82.5787 74.4293 82.408C74.0559 82.2267 73.6239 82.0667 73.1333 81.928C72.7066 81.8 72.2853 81.6667 71.8693 81.528C71.4639 81.3787 71.0959 81.1973 70.7653 80.984C70.4346 80.76 70.1733 80.4773 69.9813 80.136C69.7893 79.784 69.6933 79.3467 69.6933 78.824C69.6933 78.1733 69.8479 77.6133 70.1573 77.144C70.4666 76.6747 70.8986 76.3173 71.4533 76.072C72.0186 75.816 72.6693 75.688 73.4053 75.688C74.0239 75.688 74.5786 75.7787 75.0693 75.96C75.5599 76.1307 75.9706 76.3813 76.3013 76.712C76.6426 77.032 76.8933 77.4213 77.0533 77.88L75.5973 78.408C75.5333 78.1733 75.3999 77.9547 75.1973 77.752C74.9946 77.5387 74.7386 77.368 74.4293 77.24C74.1199 77.112 73.7733 77.048 73.3893 77.048C72.9946 77.0373 72.6373 77.1013 72.3173 77.24C72.0079 77.368 71.7573 77.5547 71.5653 77.8C71.3839 78.0453 71.2933 78.3387 71.2933 78.68C71.2933 79.0533 71.3999 79.3467 71.6133 79.56C71.8266 79.7733 72.1093 79.9493 72.4613 80.088C72.8239 80.2267 73.2186 80.36 73.6453 80.488C74.0933 80.6267 74.5306 80.776 74.9573 80.936C75.3839 81.096 75.7679 81.2987 76.1093 81.544C76.4613 81.7893 76.7439 82.0987 76.9573 82.472C77.1706 82.8347 77.2773 83.2933 77.2773 83.848C77.2773 84.4453 77.1386 84.9893 76.8612 85.48C76.5839 85.9707 76.1626 86.3653 75.5973 86.664C75.0426 86.9627 74.3439 87.112 73.5013 87.112C72.8079 87.112 72.1839 87.0053 71.6293 86.792C71.0746 86.5787 70.6159 86.2853 70.2533 85.912C69.9013 85.528 69.6666 85.0853 69.5493 84.584L71.0053 84.04ZM80.2553 84.04C80.3193 84.3387 80.4473 84.616 80.6393 84.872C80.8419 85.128 81.1139 85.336 81.4553 85.496C81.7966 85.656 82.2179 85.736 82.7193 85.736C83.4659 85.736 84.0153 85.5653 84.3673 85.224C84.7299 84.872 84.9113 84.4613 84.9113 83.992C84.9113 83.608 84.7993 83.2933 84.5753 83.048C84.3619 82.792 84.0633 82.5787 83.6793 82.408C83.3059 82.2267 82.8739 82.0667 82.3833 81.928C81.9566 81.8 81.5353 81.6667 81.1193 81.528C80.7139 81.3787 80.3459 81.1973 80.0153 80.984C79.6846 80.76 79.4233 80.4773 79.2313 80.136C79.0393 79.784 78.9433 79.3467 78.9433 78.824C78.9433 78.1733 79.0979 77.6133 79.4073 77.144C79.7166 76.6747 80.1486 76.3173 80.7033 76.072C81.2686 75.816 81.9193 75.688 82.6553 75.688C83.2739 75.688 83.8286 75.7787 84.3193 75.96C84.8099 76.1307 85.2206 76.3813 85.5513 76.712C85.8926 77.032 86.1433 77.4213 86.3033 77.88L84.8473 78.408C84.7833 78.1733 84.6499 77.9547 84.4473 77.752C84.2446 77.5387 83.9886 77.368 83.6793 77.24C83.3699 77.112 83.0233 77.048 82.6393 77.048C82.2446 77.0373 81.8873 77.1013 81.5673 77.24C81.2579 77.368 81.0073 77.5547 80.8153 77.8C80.6339 78.0453 80.5433 78.3387 80.5433 78.68C80.5433 79.0533 80.6499 79.3467 80.8633 79.56C81.0766 79.7733 81.3593 79.9493 81.7113 80.088C82.0739 80.2267 82.4686 80.36 82.8953 80.488C83.3433 80.6267 83.7806 80.776 84.2073 80.936C84.6339 81.096 85.0179 81.2987 85.3593 81.544C85.7113 81.7893 85.9939 82.0987 86.2073 82.472C86.4206 82.8347 86.5273 83.2933 86.5273 83.848C86.5273 84.4453 86.3886 84.9893 86.1112 85.48C85.8339 85.9707 85.4126 86.3653 84.8473 86.664C84.2926 86.9627 83.5939 87.112 82.7513 87.112C82.0579 87.112 81.4339 87.0053 80.8793 86.792C80.3246 86.5787 79.8659 86.2853 79.5033 85.912C79.1513 85.528 78.9166 85.0853 78.7993 84.584L80.2553 84.04ZM87.9213 75.8H96.5133V77.144H93.0253V87H91.4253V77.144H87.9213V75.8ZM104.837 79.144C104.837 78.536 104.655 78.0507 104.293 77.688C103.93 77.3253 103.354 77.144 102.565 77.144H100.005V81.128H102.581C103.103 81.128 103.53 81.048 103.861 80.888C104.191 80.7173 104.437 80.4827 104.597 80.184C104.757 79.8853 104.837 79.5387 104.837 79.144ZM102.565 75.8C103.45 75.8 104.175 75.9547 104.741 76.264C105.317 76.5627 105.743 76.9627 106.021 77.464C106.309 77.9653 106.453 78.5253 106.453 79.144C106.453 79.5493 106.383 79.9493 106.245 80.344C106.106 80.7387 105.882 81.1013 105.573 81.432C105.263 81.752 104.858 82.008 104.357 82.2C103.866 82.3813 103.274 82.472 102.581 82.472H100.005V87H98.4046V75.8H102.565ZM103.589 81.928L106.677 87H104.869L101.893 81.928H103.589ZM108.577 75.8H110.177V80.648H110.753L115.137 75.8H117.153L112.177 81.32L117.217 87H115.121L110.737 81.992H110.177V87H108.577V75.8Z" fill="black"/>
<rect x="132.5" y="5.5" width="71" height="30" rx="15" fill="#C1C1C1"/>
<rect x="132.5" y="5.5" width="71" height="30" rx="15" stroke="#808080"/>
<path d="M145.68 16.32V24.48H144.496V16.32H145.68ZM141.024 19.856H149.168V20.944H141.024V19.856ZM151.084 25.04L154.492 21.888C155.153 21.28 155.676 20.7573 156.06 20.32C156.444 19.8827 156.716 19.4773 156.876 19.104C157.047 18.7307 157.132 18.3413 157.132 17.936C157.132 17.3067 156.945 16.8 156.572 16.416C156.199 16.0213 155.628 15.824 154.86 15.824C154.337 15.824 153.895 15.936 153.532 16.16C153.169 16.384 152.892 16.6933 152.7 17.088C152.508 17.4827 152.407 17.9467 152.396 18.48H151.164C151.185 17.648 151.356 16.9547 151.676 16.4C152.007 15.8347 152.449 15.408 153.004 15.12C153.559 14.832 154.177 14.688 154.86 14.688C155.607 14.688 156.247 14.8267 156.78 15.104C157.313 15.3707 157.719 15.7493 157.996 16.24C158.284 16.72 158.428 17.2853 158.428 17.936C158.428 18.416 158.337 18.88 158.156 19.328C157.975 19.776 157.665 20.2613 157.228 20.784C156.801 21.296 156.215 21.8987 155.468 22.592L153.004 24.88H158.748V26H151.084V25.04ZM161.669 26.08C161.424 26.08 161.216 25.9947 161.045 25.824C160.885 25.6533 160.805 25.4453 160.805 25.2C160.805 24.9547 160.885 24.7467 161.045 24.576C161.216 24.4053 161.424 24.32 161.669 24.32C161.904 24.32 162.107 24.4053 162.277 24.576C162.448 24.7467 162.533 24.9547 162.533 25.2C162.533 25.4453 162.448 25.6533 162.277 25.824C162.107 25.9947 161.904 26.08 161.669 26.08ZM171.803 14.8V15.92H166.139V19.648C166.384 19.3067 166.742 19.0293 167.211 18.816C167.68 18.6027 168.208 18.496 168.795 18.496C169.478 18.496 170.054 18.608 170.523 18.832C170.992 19.056 171.371 19.3493 171.659 19.712C171.958 20.0747 172.171 20.4747 172.299 20.912C172.438 21.3387 172.507 21.76 172.507 22.176C172.507 22.88 172.358 23.5307 172.059 24.128C171.771 24.7253 171.334 25.2053 170.747 25.568C170.171 25.9307 169.451 26.112 168.587 26.112C167.84 26.112 167.184 25.9787 166.619 25.712C166.064 25.4453 165.616 25.0773 165.275 24.608C164.944 24.128 164.731 23.5733 164.635 22.944H165.883C166.032 23.6053 166.342 24.112 166.811 24.464C167.291 24.8053 167.883 24.976 168.587 24.976C169.184 24.976 169.675 24.8587 170.059 24.624C170.454 24.3893 170.742 24.064 170.923 23.648C171.115 23.232 171.211 22.752 171.211 22.208C171.211 21.3867 170.987 20.752 170.539 20.304C170.091 19.856 169.451 19.632 168.619 19.632C168.011 19.632 167.483 19.7653 167.035 20.032C166.598 20.2987 166.272 20.672 166.059 21.152H164.859V14.8H171.803ZM178.395 26.112C177.595 26.112 176.897 25.9413 176.299 25.6C175.713 25.248 175.254 24.7787 174.923 24.192C174.603 23.5947 174.443 22.9333 174.443 22.208C174.443 21.6533 174.534 21.104 174.715 20.56C174.907 20.016 175.211 19.456 175.627 18.88L178.603 14.8H179.979L176.699 19.264L175.083 21.056C175.307 20.288 175.723 19.6693 176.331 19.2C176.939 18.7307 177.675 18.496 178.539 18.496C179.297 18.496 179.958 18.656 180.523 18.976C181.089 19.2853 181.526 19.7227 181.835 20.288C182.145 20.8427 182.299 21.4933 182.299 22.24C182.299 22.9867 182.134 23.6533 181.803 24.24C181.473 24.8267 181.014 25.2853 180.427 25.616C179.841 25.9467 179.163 26.112 178.395 26.112ZM175.739 22.224C175.739 22.7787 175.841 23.264 176.043 23.68C176.257 24.096 176.561 24.416 176.955 24.64C177.35 24.864 177.83 24.976 178.395 24.976C178.961 24.976 179.435 24.864 179.819 24.64C180.214 24.416 180.507 24.1013 180.699 23.696C180.902 23.28 181.003 22.7947 181.003 22.24C181.003 21.6747 180.902 21.2 180.699 20.816C180.507 20.432 180.214 20.1387 179.819 19.936C179.435 19.7333 178.961 19.632 178.395 19.632C177.83 19.632 177.35 19.7333 176.955 19.936C176.561 20.1387 176.257 20.432 176.043 20.816C175.841 21.2 175.739 21.6693 175.739 22.224ZM183.925 17.024C183.925 16.2987 184.139 15.728 184.565 15.312C185.003 14.896 185.552 14.688 186.213 14.688C186.864 14.688 187.408 14.896 187.845 15.312C188.283 15.728 188.501 16.2987 188.501 17.024C188.501 17.7493 188.283 18.3253 187.845 18.752C187.408 19.168 186.864 19.376 186.213 19.376C185.552 19.376 185.003 19.168 184.565 18.752C184.139 18.3253 183.925 17.7493 183.925 17.024ZM186.213 15.488C185.829 15.488 185.52 15.6213 185.285 15.888C185.061 16.144 184.949 16.5227 184.949 17.024C184.949 17.5253 185.061 17.9093 185.285 18.176C185.52 18.4427 185.829 18.576 186.213 18.576C186.587 18.576 186.891 18.4427 187.125 18.176C187.36 17.9093 187.477 17.5253 187.477 17.024C187.477 16.5227 187.36 16.144 187.125 15.888C186.891 15.6213 186.587 15.488 186.213 15.488ZM191.797 14.8H193.061L186.533 26H185.269L191.797 14.8ZM189.861 23.776C189.861 23.0507 190.075 22.48 190.501 22.064C190.939 21.6373 191.483 21.424 192.133 21.424C192.784 21.424 193.328 21.6373 193.765 22.064C194.203 22.48 194.421 23.0507 194.421 23.776C194.421 24.4907 194.203 25.0613 193.765 25.488C193.328 25.904 192.784 26.112 192.133 26.112C191.483 26.112 190.939 25.904 190.501 25.488C190.075 25.0613 189.861 24.4907 189.861 23.776ZM192.133 22.24C191.76 22.24 191.456 22.3733 191.221 22.64C190.987 22.896 190.869 23.2747 190.869 23.776C190.869 24.2667 190.987 24.6453 191.221 24.912C191.456 25.168 191.76 25.296 192.133 25.296C192.507 25.296 192.811 25.168 193.045 24.912C193.28 24.6453 193.397 24.2667 193.397 23.776C193.397 23.2747 193.28 22.896 193.045 22.64C192.811 22.3733 192.507 22.24 192.133 22.24Z" fill="black"/>
<path d="M16 139.524L29.4286 159.398L42.8571 161L56.2857 124.377L69.7143 153.221L83.1429 131.967L96.5714 124.951L110 115.252L123.429 134.089L136.857 102L150.286 111.289L163.714 139.453L177.143 127.492L190.571 117.434L204 113.64" stroke="black" stroke-width="1.5"/>
</svg>
