<svg width="563" height="253" viewBox="0 0 563 253" fill="none" xmlns="http://www.w3.org/2000/svg">
<rect width="563" height="253" rx="4" fill="#081E36"/>
<path d="M16 229L20.0227 227.292C24.0455 225.585 32.0909 222.169 40.1364 216.948C48.1818 211.727 56.2273 204.701 64.2727 204.613C72.3182 204.526 80.3636 211.378 88.4091 205.389C96.4545 199.401 104.5 180.573 112.545 171.025C120.591 161.478 128.636 161.21 136.682 164.302C144.727 167.395 152.773 173.846 160.818 179.131C168.864 184.416 176.909 188.534 184.955 183.939C193 179.343 201.045 166.034 209.091 162.07C217.136 158.106 225.182 163.487 233.227 163.516C241.273 163.545 249.318 158.221 257.364 157.853C265.409 157.486 273.455 162.075 281.5 165.937C289.545 169.799 297.591 172.933 305.636 172.773C313.682 172.614 321.727 169.16 329.773 158.717C337.818 148.274 345.864 130.843 353.909 124.381C361.955 117.918 370 122.425 378.045 126.811C386.091 131.198 394.136 135.466 402.182 136.672C410.227 137.877 418.273 136.021 426.318 128.121C434.364 120.221 442.409 106.277 450.455 100.21C458.5 94.1436 466.545 95.9547 474.591 102.184C482.636 108.414 490.682 119.062 498.727 123.637C506.773 128.211 514.818 126.713 522.864 119.428C530.909 112.143 538.955 99.0714 542.977 92.5357L547 86" stroke="#18A0FB"/>
<path d="M22.734 24.126C22.734 23.594 22.5753 23.1693 22.258 22.852C21.9407 22.5347 21.4367 22.376 20.746 22.376H18.506V25.862H20.76C21.2173 25.862 21.5907 25.792 21.88 25.652C22.1693 25.5027 22.384 25.2973 22.524 25.036C22.664 24.7747 22.734 24.4713 22.734 24.126ZM20.746 21.2C21.5207 21.2 22.1553 21.3353 22.65 21.606C23.154 21.8673 23.5273 22.2173 23.77 22.656C24.022 23.0947 24.148 23.5847 24.148 24.126C24.148 24.4807 24.0873 24.8307 23.966 25.176C23.8447 25.5213 23.6487 25.8387 23.378 26.128C23.1073 26.408 22.7527 26.632 22.314 26.8C21.8847 26.9587 21.3667 27.038 20.76 27.038H18.506V31H17.106V21.2H20.746ZM21.642 26.562L24.344 31H22.762L20.158 26.562H21.642ZM28.9464 31.098C28.2744 31.098 27.6771 30.944 27.1544 30.636C26.6411 30.3187 26.2351 29.8847 25.9364 29.334C25.6471 28.7833 25.5024 28.1533 25.5024 27.444C25.5024 26.7627 25.6471 26.156 25.9364 25.624C26.2257 25.092 26.6224 24.672 27.1264 24.364C27.6397 24.056 28.2184 23.902 28.8624 23.902C29.5157 23.902 30.0944 24.0467 30.5984 24.336C31.1024 24.616 31.4944 25.0127 31.7744 25.526C32.0544 26.03 32.1897 26.6133 32.1804 27.276C32.1804 27.388 32.1757 27.5047 32.1664 27.626C32.1571 27.738 32.1431 27.864 32.1244 28.004H26.9444C26.9724 28.3773 27.0751 28.7087 27.2524 28.998C27.4391 29.278 27.6724 29.4973 27.9524 29.656C28.2417 29.8147 28.5684 29.894 28.9324 29.894C29.3991 29.894 29.8051 29.8053 30.1504 29.628C30.4957 29.4413 30.7384 29.194 30.8784 28.886L32.0264 29.292C31.7464 29.8613 31.3357 30.3047 30.7944 30.622C30.2624 30.9393 29.6464 31.098 28.9464 31.098ZM30.7384 26.87C30.7384 26.534 30.6544 26.2307 30.4864 25.96C30.3184 25.6893 30.0897 25.4793 29.8004 25.33C29.5204 25.1713 29.2031 25.092 28.8484 25.092C28.5311 25.092 28.2371 25.1713 27.9664 25.33C27.7051 25.4793 27.4811 25.6893 27.2944 25.96C27.1171 26.2213 27.0051 26.5247 26.9584 26.87H30.7384ZM36.5831 31H35.3231L33.1251 24H34.4691L35.9391 29.432L37.5071 24H38.7671L40.2791 29.404L41.7351 24H43.0371L40.8671 31H39.5931L38.0951 25.918L36.5831 31ZM48.6491 31L48.5371 29.978C48.3224 30.3327 48.0424 30.608 47.6971 30.804C47.3611 30.9907 46.9224 31.084 46.3811 31.084C45.8771 31.084 45.4478 31.0047 45.0931 30.846C44.7384 30.678 44.4631 30.4493 44.2671 30.16C44.0804 29.8613 43.9871 29.516 43.9871 29.124C43.9871 28.536 44.2064 28.0507 44.6451 27.668C45.0838 27.276 45.7184 27.0333 46.5491 26.94L48.5371 26.716V26.17C48.5371 25.8713 48.4158 25.6193 48.1731 25.414C47.9304 25.1993 47.5804 25.092 47.1231 25.092C46.6938 25.092 46.3298 25.1947 46.0311 25.4C45.7324 25.596 45.5318 25.89 45.4291 26.282L44.2531 25.862C44.4304 25.246 44.7758 24.7653 45.2891 24.42C45.8118 24.0747 46.4418 23.902 47.1791 23.902C48.0564 23.902 48.7238 24.1213 49.1811 24.56C49.6384 24.9987 49.8671 25.5773 49.8671 26.296V31H48.6491ZM48.5371 27.794L46.6191 28.032C46.2084 28.088 45.9004 28.2047 45.6951 28.382C45.4898 28.55 45.3871 28.774 45.3871 29.054C45.3871 29.3153 45.4851 29.5347 45.6811 29.712C45.8864 29.88 46.1711 29.964 46.5351 29.964C46.9831 29.964 47.3564 29.88 47.6551 29.712C47.9538 29.544 48.1731 29.3107 48.3131 29.012C48.4624 28.704 48.5371 28.3493 48.5371 27.948V27.794ZM51.7619 24H52.9659L53.0499 24.938C53.2459 24.6953 53.4699 24.4947 53.7219 24.336C53.9832 24.168 54.2632 24.0513 54.5619 23.986C54.8699 23.9207 55.1872 23.9253 55.5139 24V25.246C55.2059 25.1713 54.9072 25.162 54.6179 25.218C54.3286 25.274 54.0672 25.3953 53.8339 25.582C53.6099 25.7593 53.4279 25.9973 53.2879 26.296C53.1479 26.5947 53.0779 26.954 53.0779 27.374V31H51.7619V24ZM62.1258 25.19L61.9718 25.232V20.92H63.3018V31H62.0978L61.9998 29.95C61.7665 30.2673 61.4492 30.538 61.0478 30.762C60.6558 30.986 60.1752 31.098 59.6058 31.098C58.9712 31.098 58.4158 30.9487 57.9398 30.65C57.4732 30.3513 57.1045 29.9313 56.8338 29.39C56.5725 28.8487 56.4418 28.2187 56.4418 27.5C56.4418 26.7813 56.5725 26.1513 56.8338 25.61C57.1045 25.0687 57.4732 24.6487 57.9398 24.35C58.4158 24.0513 58.9712 23.902 59.6058 23.902C60.2125 23.902 60.7258 24.028 61.1458 24.28C61.5752 24.5227 61.9018 24.826 62.1258 25.19ZM57.8558 27.5C57.8558 28.2187 58.0425 28.7973 58.4158 29.236C58.7892 29.6747 59.2885 29.894 59.9138 29.894C60.2965 29.894 60.6418 29.8007 60.9498 29.614C61.2578 29.4273 61.5052 29.1567 61.6918 28.802C61.8785 28.438 61.9718 28.004 61.9718 27.5C61.9718 26.996 61.8785 26.5667 61.6918 26.212C61.5052 25.8573 61.2578 25.5867 60.9498 25.4C60.6418 25.204 60.2965 25.106 59.9138 25.106C59.2978 25.106 58.7985 25.3253 58.4158 25.764C58.0425 26.2027 57.8558 26.7813 57.8558 27.5ZM66.0811 28.788C66.1464 29.068 66.2584 29.2873 66.4171 29.446C66.5757 29.6047 66.7624 29.7213 66.9771 29.796C67.2011 29.8613 67.4344 29.894 67.6771 29.894C68.0971 29.894 68.4237 29.81 68.6571 29.642C68.8904 29.474 69.0071 29.264 69.0071 29.012C69.0071 28.7973 68.9324 28.6293 68.7831 28.508C68.6431 28.3773 68.4517 28.2747 68.2091 28.2C67.9757 28.1253 67.7237 28.0553 67.4531 27.99C67.2104 27.9247 66.9444 27.85 66.6551 27.766C66.3751 27.682 66.1091 27.57 65.8571 27.43C65.6144 27.2807 65.4137 27.094 65.2551 26.87C65.0964 26.6367 65.0171 26.3427 65.0171 25.988C65.0171 25.568 65.1291 25.204 65.3531 24.896C65.5864 24.5787 65.9037 24.336 66.3051 24.168C66.7157 23.9907 67.1777 23.902 67.6911 23.902C68.2884 23.902 68.8111 24.0327 69.2591 24.294C69.7164 24.546 70.0477 24.9287 70.2531 25.442L69.0631 25.834C68.9977 25.6567 68.8904 25.512 68.7411 25.4C68.5917 25.288 68.4191 25.2133 68.2231 25.176C68.0364 25.1293 67.8497 25.106 67.6631 25.106C67.3084 25.106 67.0144 25.176 66.7811 25.316C66.5477 25.456 66.4311 25.6613 66.4311 25.932C66.4311 26.0813 66.4684 26.2073 66.5431 26.31C66.6177 26.4033 66.7204 26.4827 66.8511 26.548C66.9911 26.604 67.1544 26.6553 67.3411 26.702C67.5277 26.7487 67.7284 26.8 67.9431 26.856C68.2231 26.94 68.5077 27.0333 68.7971 27.136C69.0864 27.2293 69.3524 27.3507 69.5951 27.5C69.8377 27.6493 70.0337 27.8453 70.1831 28.088C70.3324 28.3307 70.4117 28.6293 70.4211 28.984C70.4211 29.3947 70.3044 29.7587 70.0711 30.076C69.8471 30.3933 69.5251 30.6453 69.1051 30.832C68.6944 31.0093 68.2044 31.098 67.6351 31.098C66.9444 31.098 66.3564 30.944 65.8711 30.636C65.3857 30.328 65.0591 29.852 64.8911 29.208L66.0811 28.788ZM81.6735 24.126C81.6735 23.594 81.5148 23.1693 81.1975 22.852C80.8801 22.5347 80.3761 22.376 79.6855 22.376H77.4455V25.862H79.6995C80.1568 25.862 80.5301 25.792 80.8195 25.652C81.1088 25.5027 81.3235 25.2973 81.4635 25.036C81.6035 24.7747 81.6735 24.4713 81.6735 24.126ZM79.6855 21.2C80.4601 21.2 81.0948 21.3353 81.5895 21.606C82.0935 21.8673 82.4668 22.2173 82.7095 22.656C82.9615 23.0947 83.0875 23.5847 83.0875 24.126C83.0875 24.4807 83.0268 24.8307 82.9055 25.176C82.7841 25.5213 82.5881 25.8387 82.3175 26.128C82.0468 26.408 81.6921 26.632 81.2535 26.8C80.8241 26.9587 80.3061 27.038 79.6995 27.038H77.4455V31H76.0455V21.2H79.6855ZM80.5815 26.562L83.2835 31H81.7015L79.0975 26.562H80.5815ZM87.8858 31.098C87.2138 31.098 86.6165 30.944 86.0938 30.636C85.5805 30.3187 85.1745 29.8847 84.8758 29.334C84.5865 28.7833 84.4418 28.1533 84.4418 27.444C84.4418 26.7627 84.5865 26.156 84.8758 25.624C85.1652 25.092 85.5618 24.672 86.0658 24.364C86.5792 24.056 87.1578 23.902 87.8018 23.902C88.4552 23.902 89.0338 24.0467 89.5378 24.336C90.0418 24.616 90.4338 25.0127 90.7138 25.526C90.9938 26.03 91.1292 26.6133 91.1198 27.276C91.1198 27.388 91.1152 27.5047 91.1058 27.626C91.0965 27.738 91.0825 27.864 91.0638 28.004H85.8838C85.9118 28.3773 86.0145 28.7087 86.1918 28.998C86.3785 29.278 86.6118 29.4973 86.8918 29.656C87.1812 29.8147 87.5078 29.894 87.8718 29.894C88.3385 29.894 88.7445 29.8053 89.0898 29.628C89.4352 29.4413 89.6778 29.194 89.8178 28.886L90.9658 29.292C90.6858 29.8613 90.2752 30.3047 89.7338 30.622C89.2018 30.9393 88.5858 31.098 87.8858 31.098ZM89.6778 26.87C89.6778 26.534 89.5938 26.2307 89.4258 25.96C89.2578 25.6893 89.0292 25.4793 88.7398 25.33C88.4598 25.1713 88.1425 25.092 87.7878 25.092C87.4705 25.092 87.1765 25.1713 86.9058 25.33C86.6445 25.4793 86.4205 25.6893 86.2338 25.96C86.0565 26.2213 85.9445 26.5247 85.8978 26.87H89.6778ZM95.7325 31.098C95.0605 31.098 94.4678 30.9487 93.9545 30.65C93.4412 30.342 93.0398 29.922 92.7505 29.39C92.4705 28.858 92.3305 28.2373 92.3305 27.528C92.3305 26.8093 92.4752 26.1793 92.7645 25.638C93.0538 25.0967 93.4552 24.672 93.9685 24.364C94.4818 24.056 95.0792 23.902 95.7605 23.902C96.4792 23.902 97.1092 24.07 97.6505 24.406C98.2012 24.742 98.5978 25.1947 98.8405 25.764L97.6505 26.184C97.5105 25.8573 97.2725 25.596 96.9365 25.4C96.6098 25.204 96.2365 25.106 95.8165 25.106C95.3872 25.106 95.0185 25.2087 94.7105 25.414C94.4025 25.61 94.1645 25.89 93.9965 26.254C93.8285 26.6087 93.7445 27.0287 93.7445 27.514C93.7445 28.242 93.9312 28.8207 94.3045 29.25C94.6778 29.6793 95.1818 29.894 95.8165 29.894C96.2365 29.894 96.6098 29.8007 96.9365 29.614C97.2725 29.4273 97.5245 29.1707 97.6925 28.844L98.8685 29.264C98.6072 29.824 98.1965 30.272 97.6365 30.608C97.0765 30.9347 96.4418 31.098 95.7325 31.098ZM100.685 24H102.015V31H100.685V24ZM101.357 22.768C101.105 22.768 100.895 22.684 100.727 22.516C100.559 22.348 100.475 22.1427 100.475 21.9C100.475 21.648 100.559 21.438 100.727 21.27C100.895 21.0927 101.105 21.004 101.357 21.004C101.599 21.004 101.805 21.0927 101.973 21.27C102.15 21.438 102.239 21.648 102.239 21.9C102.239 22.1427 102.15 22.348 101.973 22.516C101.805 22.684 101.599 22.768 101.357 22.768ZM107.259 31.098C106.587 31.098 105.99 30.944 105.467 30.636C104.954 30.3187 104.548 29.8847 104.249 29.334C103.96 28.7833 103.815 28.1533 103.815 27.444C103.815 26.7627 103.96 26.156 104.249 25.624C104.538 25.092 104.935 24.672 105.439 24.364C105.952 24.056 106.531 23.902 107.175 23.902C107.828 23.902 108.407 24.0467 108.911 24.336C109.415 24.616 109.807 25.0127 110.087 25.526C110.367 26.03 110.502 26.6133 110.493 27.276C110.493 27.388 110.488 27.5047 110.479 27.626C110.47 27.738 110.456 27.864 110.437 28.004H105.257C105.285 28.3773 105.388 28.7087 105.565 28.998C105.752 29.278 105.985 29.4973 106.265 29.656C106.554 29.8147 106.881 29.894 107.245 29.894C107.712 29.894 108.118 29.8053 108.463 29.628C108.808 29.4413 109.051 29.194 109.191 28.886L110.339 29.292C110.059 29.8613 109.648 30.3047 109.107 30.622C108.575 30.9393 107.959 31.098 107.259 31.098ZM109.051 26.87C109.051 26.534 108.967 26.2307 108.799 25.96C108.631 25.6893 108.402 25.4793 108.113 25.33C107.833 25.1713 107.516 25.092 107.161 25.092C106.844 25.092 106.55 25.1713 106.279 25.33C106.018 25.4793 105.794 25.6893 105.607 25.96C105.43 26.2213 105.318 26.5247 105.271 26.87H109.051ZM112.866 24L114.882 29.586L116.912 24H118.312L115.582 31H114.154L111.438 24H112.866ZM122.681 31.098C122.009 31.098 121.411 30.944 120.889 30.636C120.375 30.3187 119.969 29.8847 119.671 29.334C119.381 28.7833 119.237 28.1533 119.237 27.444C119.237 26.7627 119.381 26.156 119.671 25.624C119.96 25.092 120.357 24.672 120.861 24.364C121.374 24.056 121.953 23.902 122.597 23.902C123.25 23.902 123.829 24.0467 124.333 24.336C124.837 24.616 125.229 25.0127 125.509 25.526C125.789 26.03 125.924 26.6133 125.915 27.276C125.915 27.388 125.91 27.5047 125.901 27.626C125.891 27.738 125.877 27.864 125.859 28.004H120.679C120.707 28.3773 120.809 28.7087 120.987 28.998C121.173 29.278 121.407 29.4973 121.687 29.656C121.976 29.8147 122.303 29.894 122.667 29.894C123.133 29.894 123.539 29.8053 123.885 29.628C124.23 29.4413 124.473 29.194 124.613 28.886L125.761 29.292C125.481 29.8613 125.07 30.3047 124.529 30.622C123.997 30.9393 123.381 31.098 122.681 31.098ZM124.473 26.87C124.473 26.534 124.389 26.2307 124.221 25.96C124.053 25.6893 123.824 25.4793 123.535 25.33C123.255 25.1713 122.937 25.092 122.583 25.092C122.265 25.092 121.971 25.1713 121.701 25.33C121.439 25.4793 121.215 25.6893 121.029 25.96C120.851 26.2213 120.739 26.5247 120.693 26.87H124.473ZM132.809 25.19L132.655 25.232V20.92H133.985V31H132.781L132.683 29.95C132.45 30.2673 132.133 30.538 131.731 30.762C131.339 30.986 130.859 31.098 130.289 31.098C129.655 31.098 129.099 30.9487 128.623 30.65C128.157 30.3513 127.788 29.9313 127.517 29.39C127.256 28.8487 127.125 28.2187 127.125 27.5C127.125 26.7813 127.256 26.1513 127.517 25.61C127.788 25.0687 128.157 24.6487 128.623 24.35C129.099 24.0513 129.655 23.902 130.289 23.902C130.896 23.902 131.409 24.028 131.829 24.28C132.259 24.5227 132.585 24.826 132.809 25.19ZM128.539 27.5C128.539 28.2187 128.726 28.7973 129.099 29.236C129.473 29.6747 129.972 29.894 130.597 29.894C130.98 29.894 131.325 29.8007 131.633 29.614C131.941 29.4273 132.189 29.1567 132.375 28.802C132.562 28.438 132.655 28.004 132.655 27.5C132.655 26.996 132.562 26.5667 132.375 26.212C132.189 25.8573 131.941 25.5867 131.633 25.4C131.325 25.204 130.98 25.106 130.597 25.106C129.981 25.106 129.482 25.3253 129.099 25.764C128.726 26.2027 128.539 26.7813 128.539 27.5Z" fill="#F5F5F5" fill-opacity="0.25"/>
<path d="M17 59.5V230H544" stroke="#C1C1C1" stroke-width="2"/>
<rect x="453" y="12" width="94" height="32" rx="4" fill="#F5F5F5" fill-opacity="0.05"/>
<path d="M464 34H470V32H464V34ZM464 22V24H482V22H464ZM464 29H476V27H464V29Z" fill="#F5F5F5" fill-opacity="0.25"/>
<path d="M490.106 22.7H491.506V26.942H496.434V22.7H497.82V32.5H496.434V28.118H491.506V32.5H490.106V22.7ZM500.157 25.5H501.487V32.5H500.157V25.5ZM500.829 24.268C500.577 24.268 500.367 24.184 500.199 24.016C500.031 23.848 499.947 23.6427 499.947 23.4C499.947 23.148 500.031 22.938 500.199 22.77C500.367 22.5927 500.577 22.504 500.829 22.504C501.072 22.504 501.277 22.5927 501.445 22.77C501.623 22.938 501.711 23.148 501.711 23.4C501.711 23.6427 501.623 23.848 501.445 24.016C501.277 24.184 501.072 24.268 500.829 24.268ZM508.944 25.5H510.148V31.352C510.148 32.1733 509.952 32.878 509.56 33.466C509.168 34.054 508.603 34.5067 507.866 34.824C507.138 35.1413 506.256 35.3 505.22 35.3L505.01 34.138C506.26 34.11 507.208 33.858 507.852 33.382C508.496 32.9153 508.818 32.2387 508.818 31.352V31.282L508.972 31.296C508.748 31.6507 508.426 31.9587 508.006 32.22C507.595 32.472 507.082 32.598 506.466 32.598C505.84 32.598 505.285 32.4487 504.8 32.15C504.324 31.8513 503.95 31.4313 503.68 30.89C503.418 30.3487 503.288 29.7187 503.288 29C503.288 28.2813 503.418 27.6513 503.68 27.11C503.95 26.5687 504.324 26.1487 504.8 25.85C505.285 25.5513 505.84 25.402 506.466 25.402C506.848 25.402 507.189 25.4533 507.488 25.556C507.796 25.6587 508.062 25.7987 508.286 25.976C508.51 26.144 508.696 26.3353 508.846 26.55L508.944 25.5ZM504.702 29C504.702 29.7187 504.888 30.2973 505.262 30.736C505.644 31.1747 506.153 31.394 506.788 31.394C507.161 31.394 507.502 31.3007 507.81 31.114C508.118 30.918 508.36 30.6427 508.538 30.288C508.724 29.924 508.818 29.4947 508.818 29C508.818 28.496 508.724 28.0667 508.538 27.712C508.36 27.3573 508.113 27.0867 507.796 26.9C507.488 26.704 507.152 26.606 506.788 26.606C506.153 26.606 505.644 26.8253 505.262 27.264C504.888 27.7027 504.702 28.2813 504.702 29ZM512.143 22.42H513.459V26.27C513.683 25.9993 513.972 25.7893 514.327 25.64C514.681 25.4813 515.073 25.402 515.503 25.402C516.025 25.402 516.483 25.5187 516.875 25.752C517.276 25.976 517.589 26.3167 517.813 26.774C518.037 27.222 518.149 27.782 518.149 28.454V32.5H516.763V28.622C516.763 27.9687 516.627 27.4693 516.357 27.124C516.086 26.7787 515.689 26.606 515.167 26.606C514.625 26.606 514.205 26.7833 513.907 27.138C513.608 27.4927 513.459 28.0107 513.459 28.692V32.5H512.143V22.42ZM523.097 32.598C522.425 32.598 521.827 32.444 521.305 32.136C520.791 31.8187 520.385 31.3847 520.087 30.834C519.797 30.2833 519.653 29.6533 519.653 28.944C519.653 28.2627 519.797 27.656 520.087 27.124C520.376 26.592 520.773 26.172 521.277 25.864C521.79 25.556 522.369 25.402 523.013 25.402C523.666 25.402 524.245 25.5467 524.749 25.836C525.253 26.116 525.645 26.5127 525.925 27.026C526.205 27.53 526.34 28.1133 526.331 28.776C526.331 28.888 526.326 29.0047 526.317 29.126C526.307 29.238 526.293 29.364 526.275 29.504H521.095C521.123 29.8773 521.225 30.2087 521.403 30.498C521.589 30.778 521.823 30.9973 522.103 31.156C522.392 31.3147 522.719 31.394 523.083 31.394C523.549 31.394 523.955 31.3053 524.301 31.128C524.646 30.9413 524.889 30.694 525.029 30.386L526.177 30.792C525.897 31.3613 525.486 31.8047 524.945 32.122C524.413 32.4393 523.797 32.598 523.097 32.598ZM524.889 28.37C524.889 28.034 524.805 27.7307 524.637 27.46C524.469 27.1893 524.24 26.9793 523.951 26.83C523.671 26.6713 523.353 26.592 522.999 26.592C522.681 26.592 522.387 26.6713 522.117 26.83C521.855 26.9793 521.631 27.1893 521.445 27.46C521.267 27.7213 521.155 28.0247 521.109 28.37H524.889ZM528.731 30.288C528.797 30.568 528.909 30.7873 529.067 30.946C529.226 31.1047 529.413 31.2213 529.627 31.296C529.851 31.3613 530.085 31.394 530.327 31.394C530.747 31.394 531.074 31.31 531.307 31.142C531.541 30.974 531.657 30.764 531.657 30.512C531.657 30.2973 531.583 30.1293 531.433 30.008C531.293 29.8773 531.102 29.7747 530.859 29.7C530.626 29.6253 530.374 29.5553 530.103 29.49C529.861 29.4247 529.595 29.35 529.305 29.266C529.025 29.182 528.759 29.07 528.507 28.93C528.265 28.7807 528.064 28.594 527.905 28.37C527.747 28.1367 527.667 27.8427 527.667 27.488C527.667 27.068 527.779 26.704 528.003 26.396C528.237 26.0787 528.554 25.836 528.955 25.668C529.366 25.4907 529.828 25.402 530.341 25.402C530.939 25.402 531.461 25.5327 531.909 25.794C532.367 26.046 532.698 26.4287 532.903 26.942L531.713 27.334C531.648 27.1567 531.541 27.012 531.391 26.9C531.242 26.788 531.069 26.7133 530.873 26.676C530.687 26.6293 530.5 26.606 530.313 26.606C529.959 26.606 529.665 26.676 529.431 26.816C529.198 26.956 529.081 27.1613 529.081 27.432C529.081 27.5813 529.119 27.7073 529.193 27.81C529.268 27.9033 529.371 27.9827 529.501 28.048C529.641 28.104 529.805 28.1553 529.991 28.202C530.178 28.2487 530.379 28.3 530.593 28.356C530.873 28.44 531.158 28.5333 531.447 28.636C531.737 28.7293 532.003 28.8507 532.245 29C532.488 29.1493 532.684 29.3453 532.833 29.588C532.983 29.8307 533.062 30.1293 533.071 30.484C533.071 30.8947 532.955 31.2587 532.721 31.576C532.497 31.8933 532.175 32.1453 531.755 32.332C531.345 32.5093 530.855 32.598 530.285 32.598C529.595 32.598 529.007 32.444 528.521 32.136C528.036 31.828 527.709 31.352 527.541 30.708L528.731 30.288ZM535.122 25.5V23.54H536.452V25.5H538.202V26.676H536.452V30.12C536.452 30.5493 536.536 30.8527 536.704 31.03C536.881 31.2073 537.101 31.31 537.362 31.338C537.633 31.3567 537.913 31.3473 538.202 31.31V32.444C537.819 32.528 537.441 32.5513 537.068 32.514C536.704 32.486 536.373 32.3833 536.074 32.206C535.785 32.0287 535.551 31.772 535.374 31.436C535.206 31.0907 535.122 30.652 535.122 30.12V26.676H534.114V25.5H535.122Z" fill="#F5F5F5"/>
<path d="M416.946 29.91C417.002 30.1713 417.114 30.414 417.282 30.638C417.459 30.862 417.697 31.044 417.996 31.184C418.295 31.324 418.663 31.394 419.102 31.394C419.755 31.394 420.236 31.2447 420.544 30.946C420.861 30.638 421.02 30.2787 421.02 29.868C421.02 29.532 420.922 29.2567 420.726 29.042C420.539 28.818 420.278 28.6313 419.942 28.482C419.615 28.3233 419.237 28.1833 418.808 28.062C418.435 27.95 418.066 27.8333 417.702 27.712C417.347 27.5813 417.025 27.4227 416.736 27.236C416.447 27.04 416.218 26.7927 416.05 26.494C415.882 26.186 415.798 25.8033 415.798 25.346C415.798 24.7767 415.933 24.2867 416.204 23.876C416.475 23.4653 416.853 23.1527 417.338 22.938C417.833 22.714 418.402 22.602 419.046 22.602C419.587 22.602 420.073 22.6813 420.502 22.84C420.931 22.9893 421.291 23.2087 421.58 23.498C421.879 23.778 422.098 24.1187 422.238 24.52L420.964 24.982C420.908 24.7767 420.791 24.5853 420.614 24.408C420.437 24.2213 420.213 24.072 419.942 23.96C419.671 23.848 419.368 23.792 419.032 23.792C418.687 23.7827 418.374 23.8387 418.094 23.96C417.823 24.072 417.604 24.2353 417.436 24.45C417.277 24.6647 417.198 24.9213 417.198 25.22C417.198 25.5467 417.291 25.8033 417.478 25.99C417.665 26.1767 417.912 26.3307 418.22 26.452C418.537 26.5733 418.883 26.69 419.256 26.802C419.648 26.9233 420.031 27.054 420.404 27.194C420.777 27.334 421.113 27.5113 421.412 27.726C421.72 27.9407 421.967 28.2113 422.154 28.538C422.341 28.8553 422.434 29.2567 422.434 29.742C422.434 30.2647 422.313 30.7407 422.07 31.17C421.827 31.5993 421.459 31.9447 420.964 32.206C420.479 32.4673 419.867 32.598 419.13 32.598C418.523 32.598 417.977 32.5047 417.492 32.318C417.007 32.1313 416.605 31.8747 416.288 31.548C415.98 31.212 415.775 30.8247 415.672 30.386L416.946 29.91ZM427.168 32.598C426.505 32.598 425.908 32.4533 425.376 32.164C424.853 31.8653 424.442 31.45 424.144 30.918C423.845 30.3767 423.696 29.742 423.696 29.014C423.696 28.2767 423.85 27.6373 424.158 27.096C424.466 26.5547 424.886 26.1393 425.418 25.85C425.95 25.5513 426.547 25.402 427.21 25.402C427.872 25.402 428.47 25.5513 429.002 25.85C429.543 26.1393 429.968 26.5547 430.276 27.096C430.584 27.628 430.738 28.258 430.738 28.986C430.738 29.7233 430.579 30.3627 430.262 30.904C429.954 31.4453 429.529 31.8653 428.988 32.164C428.446 32.4533 427.84 32.598 427.168 32.598ZM427.154 31.394C427.527 31.394 427.877 31.31 428.204 31.142C428.53 30.9647 428.796 30.6987 429.002 30.344C429.216 29.9893 429.324 29.5367 429.324 28.986C429.324 28.4447 429.221 28.0013 429.016 27.656C428.82 27.3013 428.558 27.04 428.232 26.872C427.905 26.6947 427.555 26.606 427.182 26.606C426.818 26.606 426.477 26.6947 426.16 26.872C425.852 27.04 425.6 27.3013 425.404 27.656C425.208 28.0107 425.11 28.4633 425.11 29.014C425.11 29.5553 425.203 30.0033 425.39 30.358C425.586 30.7033 425.838 30.9647 426.146 31.142C426.454 31.31 426.79 31.394 427.154 31.394ZM432.346 25.5H433.55L433.634 26.438C433.83 26.1953 434.054 25.9947 434.306 25.836C434.567 25.668 434.847 25.5513 435.146 25.486C435.454 25.4207 435.771 25.4253 436.098 25.5V26.746C435.79 26.6713 435.491 26.662 435.202 26.718C434.913 26.774 434.651 26.8953 434.418 27.082C434.194 27.2593 434.012 27.4973 433.872 27.796C433.732 28.0947 433.662 28.454 433.662 28.874V32.5H432.346V25.5ZM437.88 25.5V23.54H439.21V25.5H440.96V26.676H439.21V30.12C439.21 30.5493 439.294 30.8527 439.462 31.03C439.639 31.2073 439.858 31.31 440.12 31.338C440.39 31.3567 440.67 31.3473 440.96 31.31V32.444C440.577 32.528 440.199 32.5513 439.826 32.514C439.462 32.486 439.13 32.3833 438.832 32.206C438.542 32.0287 438.309 31.772 438.132 31.436C437.964 31.0907 437.88 30.652 437.88 30.12V26.676H436.872V25.5H437.88ZM443.22 32.584C442.968 32.584 442.753 32.4953 442.576 32.318C442.398 32.1407 442.31 31.926 442.31 31.674C442.31 31.4127 442.398 31.1933 442.576 31.016C442.753 30.8387 442.968 30.75 443.22 30.75C443.472 30.75 443.686 30.8387 443.864 31.016C444.041 31.1933 444.13 31.4127 444.13 31.674C444.13 31.926 444.041 32.1407 443.864 32.318C443.686 32.4953 443.472 32.584 443.22 32.584ZM443.22 26.634C442.968 26.634 442.753 26.5453 442.576 26.368C442.398 26.1907 442.31 25.976 442.31 25.724C442.31 25.4627 442.398 25.2433 442.576 25.066C442.753 24.8887 442.968 24.8 443.22 24.8C443.472 24.8 443.686 24.8887 443.864 25.066C444.041 25.2433 444.13 25.4627 444.13 25.724C444.13 25.976 444.041 26.1907 443.864 26.368C443.686 26.5453 443.472 26.634 443.22 26.634Z" fill="white" fill-opacity="0.5"/>
<path d="M96.652 66.196C96.2973 65.5333 95.8447 65.0527 95.294 64.754C94.7527 64.4553 94.16 64.306 93.516 64.306C92.8627 64.306 92.2653 64.4647 91.724 64.782C91.1827 65.0993 90.7533 65.5427 90.436 66.112C90.128 66.672 89.974 67.3347 89.974 68.1C89.974 68.856 90.128 69.5187 90.436 70.088C90.744 70.6573 91.164 71.1007 91.696 71.418C92.2373 71.7353 92.8393 71.894 93.502 71.894C93.978 71.894 94.426 71.81 94.846 71.642C95.266 71.474 95.63 71.2407 95.938 70.942C96.2553 70.6433 96.5027 70.2887 96.68 69.878V68.814H93.6V67.666H98.094V69.948C97.87 70.5453 97.534 71.082 97.086 71.558C96.6473 72.034 96.12 72.412 95.504 72.692C94.8973 72.9627 94.23 73.098 93.502 73.098C92.8113 73.098 92.1627 72.9767 91.556 72.734C90.9587 72.4913 90.436 72.1507 89.988 71.712C89.54 71.264 89.19 70.7367 88.938 70.13C88.686 69.514 88.56 68.8373 88.56 68.1C88.56 67.372 88.686 66.7047 88.938 66.098C89.19 65.482 89.54 64.95 89.988 64.502C90.436 64.054 90.9587 63.7087 91.556 63.466C92.1627 63.2233 92.8113 63.102 93.502 63.102C94.1273 63.102 94.7247 63.2047 95.294 63.41C95.8633 63.6153 96.372 63.914 96.82 64.306C97.268 64.698 97.618 65.1787 97.87 65.748L96.652 66.196ZM104.024 73L103.912 71.978C103.697 72.3327 103.417 72.608 103.072 72.804C102.736 72.9907 102.297 73.084 101.756 73.084C101.252 73.084 100.823 73.0047 100.468 72.846C100.113 72.678 99.8381 72.4493 99.6421 72.16C99.4554 71.8613 99.3621 71.516 99.3621 71.124C99.3621 70.536 99.5814 70.0507 100.02 69.668C100.459 69.276 101.093 69.0333 101.924 68.94L103.912 68.716V68.17C103.912 67.8713 103.791 67.6193 103.548 67.414C103.305 67.1993 102.955 67.092 102.498 67.092C102.069 67.092 101.705 67.1947 101.406 67.4C101.107 67.596 100.907 67.89 100.804 68.282L99.6281 67.862C99.8054 67.246 100.151 66.7653 100.664 66.42C101.187 66.0747 101.817 65.902 102.554 65.902C103.431 65.902 104.099 66.1213 104.556 66.56C105.013 66.9987 105.242 67.5773 105.242 68.296V73H104.024ZM103.912 69.794L101.994 70.032C101.583 70.088 101.275 70.2047 101.07 70.382C100.865 70.55 100.762 70.774 100.762 71.054C100.762 71.3153 100.86 71.5347 101.056 71.712C101.261 71.88 101.546 71.964 101.91 71.964C102.358 71.964 102.731 71.88 103.03 71.712C103.329 71.544 103.548 71.3107 103.688 71.012C103.837 70.704 103.912 70.3493 103.912 69.948V69.794ZM107.921 70.788C107.986 71.068 108.098 71.2873 108.257 71.446C108.416 71.6047 108.602 71.7213 108.817 71.796C109.041 71.8613 109.274 71.894 109.517 71.894C109.937 71.894 110.264 71.81 110.497 71.642C110.73 71.474 110.847 71.264 110.847 71.012C110.847 70.7973 110.772 70.6293 110.623 70.508C110.483 70.3773 110.292 70.2747 110.049 70.2C109.816 70.1253 109.564 70.0553 109.293 69.99C109.05 69.9247 108.784 69.85 108.495 69.766C108.215 69.682 107.949 69.57 107.697 69.43C107.454 69.2807 107.254 69.094 107.095 68.87C106.936 68.6367 106.857 68.3427 106.857 67.988C106.857 67.568 106.969 67.204 107.193 66.896C107.426 66.5787 107.744 66.336 108.145 66.168C108.556 65.9907 109.018 65.902 109.531 65.902C110.128 65.902 110.651 66.0327 111.099 66.294C111.556 66.546 111.888 66.9287 112.093 67.442L110.903 67.834C110.838 67.6567 110.73 67.512 110.581 67.4C110.432 67.288 110.259 67.2133 110.063 67.176C109.876 67.1293 109.69 67.106 109.503 67.106C109.148 67.106 108.854 67.176 108.621 67.316C108.388 67.456 108.271 67.6613 108.271 67.932C108.271 68.0813 108.308 68.2073 108.383 68.31C108.458 68.4033 108.56 68.4827 108.691 68.548C108.831 68.604 108.994 68.6553 109.181 68.702C109.368 68.7487 109.568 68.8 109.783 68.856C110.063 68.94 110.348 69.0333 110.637 69.136C110.926 69.2293 111.192 69.3507 111.435 69.5C111.678 69.6493 111.874 69.8453 112.023 70.088C112.172 70.3307 112.252 70.6293 112.261 70.984C112.261 71.3947 112.144 71.7587 111.911 72.076C111.687 72.3933 111.365 72.6453 110.945 72.832C110.534 73.0093 110.044 73.098 109.475 73.098C108.784 73.098 108.196 72.944 107.711 72.636C107.226 72.328 106.899 71.852 106.731 71.208L107.921 70.788ZM114.647 73.084C114.395 73.084 114.181 72.9953 114.003 72.818C113.826 72.6407 113.737 72.426 113.737 72.174C113.737 71.9127 113.826 71.6933 114.003 71.516C114.181 71.3387 114.395 71.25 114.647 71.25C114.899 71.25 115.114 71.3387 115.291 71.516C115.469 71.6933 115.557 71.9127 115.557 72.174C115.557 72.426 115.469 72.6407 115.291 72.818C115.114 72.9953 114.899 73.084 114.647 73.084ZM114.647 67.134C114.395 67.134 114.181 67.0453 114.003 66.868C113.826 66.6907 113.737 66.476 113.737 66.224C113.737 65.9627 113.826 65.7433 114.003 65.566C114.181 65.3887 114.395 65.3 114.647 65.3C114.899 65.3 115.114 65.3887 115.291 65.566C115.469 65.7433 115.557 65.9627 115.557 66.224C115.557 66.476 115.469 66.6907 115.291 66.868C115.114 67.0453 114.899 67.134 114.647 67.134Z" fill="white" fill-opacity="0.5"/>
<path d="M127.89 64.376H126.56V63.2H129.29V73H127.89V64.376ZM136.1 70.76H130.962V69.738L135.792 63.2H137.486V69.57H138.83V70.76H137.486V73H136.1V70.76ZM136.128 69.57V64.642L132.558 69.57H136.128ZM152.138 66.196C151.784 65.5333 151.331 65.0527 150.78 64.754C150.239 64.4553 149.646 64.306 149.002 64.306C148.349 64.306 147.752 64.4647 147.21 64.782C146.669 65.0993 146.24 65.5427 145.922 66.112C145.614 66.672 145.46 67.3347 145.46 68.1C145.46 68.856 145.614 69.5187 145.922 70.088C146.23 70.6573 146.65 71.1007 147.182 71.418C147.724 71.7353 148.326 71.894 148.988 71.894C149.464 71.894 149.912 71.81 150.332 71.642C150.752 71.474 151.116 71.2407 151.424 70.942C151.742 70.6433 151.989 70.2887 152.166 69.878V68.814H149.086V67.666H153.58V69.948C153.356 70.5453 153.02 71.082 152.572 71.558C152.134 72.034 151.606 72.412 150.99 72.692C150.384 72.9627 149.716 73.098 148.988 73.098C148.298 73.098 147.649 72.9767 147.042 72.734C146.445 72.4913 145.922 72.1507 145.474 71.712C145.026 71.264 144.676 70.7367 144.424 70.13C144.172 69.514 144.046 68.8373 144.046 68.1C144.046 67.372 144.172 66.7047 144.424 66.098C144.676 65.482 145.026 64.95 145.474 64.502C145.922 64.054 146.445 63.7087 147.042 63.466C147.649 63.2233 148.298 63.102 148.988 63.102C149.614 63.102 150.211 63.2047 150.78 63.41C151.35 63.6153 151.858 63.914 152.306 64.306C152.754 64.698 153.104 65.1787 153.356 65.748L152.138 66.196ZM159.51 73L159.398 71.978C159.184 72.3327 158.904 72.608 158.558 72.804C158.222 72.9907 157.784 73.084 157.242 73.084C156.738 73.084 156.309 73.0047 155.954 72.846C155.6 72.678 155.324 72.4493 155.128 72.16C154.942 71.8613 154.848 71.516 154.848 71.124C154.848 70.536 155.068 70.0507 155.506 69.668C155.945 69.276 156.58 69.0333 157.41 68.94L159.398 68.716V68.17C159.398 67.8713 159.277 67.6193 159.034 67.414C158.792 67.1993 158.442 67.092 157.984 67.092C157.555 67.092 157.191 67.1947 156.892 67.4C156.594 67.596 156.393 67.89 156.29 68.282L155.114 67.862C155.292 67.246 155.637 66.7653 156.15 66.42C156.673 66.0747 157.303 65.902 158.04 65.902C158.918 65.902 159.585 66.1213 160.042 66.56C160.5 66.9987 160.728 67.5773 160.728 68.296V73H159.51ZM159.398 69.794L157.48 70.032C157.07 70.088 156.762 70.2047 156.556 70.382C156.351 70.55 156.248 70.774 156.248 71.054C156.248 71.3153 156.346 71.5347 156.542 71.712C156.748 71.88 157.032 71.964 157.396 71.964C157.844 71.964 158.218 71.88 158.516 71.712C158.815 71.544 159.034 71.3107 159.174 71.012C159.324 70.704 159.398 70.3493 159.398 69.948V69.794ZM163.407 70.788C163.473 71.068 163.585 71.2873 163.743 71.446C163.902 71.6047 164.089 71.7213 164.303 71.796C164.527 71.8613 164.761 71.894 165.003 71.894C165.423 71.894 165.75 71.81 165.983 71.642C166.217 71.474 166.333 71.264 166.333 71.012C166.333 70.7973 166.259 70.6293 166.109 70.508C165.969 70.3773 165.778 70.2747 165.535 70.2C165.302 70.1253 165.05 70.0553 164.779 69.99C164.537 69.9247 164.271 69.85 163.981 69.766C163.701 69.682 163.435 69.57 163.183 69.43C162.941 69.2807 162.74 69.094 162.581 68.87C162.423 68.6367 162.343 68.3427 162.343 67.988C162.343 67.568 162.455 67.204 162.679 66.896C162.913 66.5787 163.23 66.336 163.631 66.168C164.042 65.9907 164.504 65.902 165.017 65.902C165.615 65.902 166.137 66.0327 166.585 66.294C167.043 66.546 167.374 66.9287 167.579 67.442L166.389 67.834C166.324 67.6567 166.217 67.512 166.067 67.4C165.918 67.288 165.745 67.2133 165.549 67.176C165.363 67.1293 165.176 67.106 164.989 67.106C164.635 67.106 164.341 67.176 164.107 67.316C163.874 67.456 163.757 67.6613 163.757 67.932C163.757 68.0813 163.795 68.2073 163.869 68.31C163.944 68.4033 164.047 68.4827 164.177 68.548C164.317 68.604 164.481 68.6553 164.667 68.702C164.854 68.7487 165.055 68.8 165.269 68.856C165.549 68.94 165.834 69.0333 166.123 69.136C166.413 69.2293 166.679 69.3507 166.921 69.5C167.164 69.6493 167.36 69.8453 167.509 70.088C167.659 70.3307 167.738 70.6293 167.747 70.984C167.747 71.3947 167.631 71.7587 167.397 72.076C167.173 72.3933 166.851 72.6453 166.431 72.832C166.021 73.0093 165.531 73.098 164.961 73.098C164.271 73.098 163.683 72.944 163.197 72.636C162.712 72.328 162.385 71.852 162.217 71.208L163.407 70.788Z" fill="#F5F5F5"/>
<path d="M95.854 89.2H97.324L93.642 99H92.032L88.364 89.2H89.848L92.844 97.558L95.854 89.2ZM101.781 99.098C101.118 99.098 100.521 98.9533 99.989 98.664C99.4664 98.3653 99.0557 97.95 98.757 97.418C98.4584 96.8767 98.309 96.242 98.309 95.514C98.309 94.7767 98.463 94.1373 98.771 93.596C99.079 93.0547 99.499 92.6393 100.031 92.35C100.563 92.0513 101.16 91.902 101.823 91.902C102.486 91.902 103.083 92.0513 103.615 92.35C104.156 92.6393 104.581 93.0547 104.889 93.596C105.197 94.128 105.351 94.758 105.351 95.486C105.351 96.2233 105.192 96.8627 104.875 97.404C104.567 97.9453 104.142 98.3653 103.601 98.664C103.06 98.9533 102.453 99.098 101.781 99.098ZM101.767 97.894C102.14 97.894 102.49 97.81 102.817 97.642C103.144 97.4647 103.41 97.1987 103.615 96.844C103.83 96.4893 103.937 96.0367 103.937 95.486C103.937 94.9447 103.834 94.5013 103.629 94.156C103.433 93.8013 103.172 93.54 102.845 93.372C102.518 93.1947 102.168 93.106 101.795 93.106C101.431 93.106 101.09 93.1947 100.773 93.372C100.465 93.54 100.213 93.8013 100.017 94.156C99.821 94.5107 99.723 94.9633 99.723 95.514C99.723 96.0553 99.8164 96.5033 100.003 96.858C100.199 97.2033 100.451 97.4647 100.759 97.642C101.067 97.81 101.403 97.894 101.767 97.894ZM106.959 88.92H108.275V99H106.959V88.92ZM111.009 99.084C110.757 99.084 110.543 98.9953 110.365 98.818C110.188 98.6407 110.099 98.426 110.099 98.174C110.099 97.9127 110.188 97.6933 110.365 97.516C110.543 97.3387 110.757 97.25 111.009 97.25C111.261 97.25 111.476 97.3387 111.653 97.516C111.831 97.6933 111.919 97.9127 111.919 98.174C111.919 98.426 111.831 98.6407 111.653 98.818C111.476 98.9953 111.261 99.084 111.009 99.084ZM114.538 99.084C114.286 99.084 114.071 98.9953 113.894 98.818C113.717 98.6407 113.628 98.426 113.628 98.174C113.628 97.9127 113.717 97.6933 113.894 97.516C114.071 97.3387 114.286 97.25 114.538 97.25C114.79 97.25 115.005 97.3387 115.182 97.516C115.359 97.6933 115.448 97.9127 115.448 98.174C115.448 98.426 115.359 98.6407 115.182 98.818C115.005 98.9953 114.79 99.084 114.538 99.084ZM114.538 93.134C114.286 93.134 114.071 93.0453 113.894 92.868C113.717 92.6907 113.628 92.476 113.628 92.224C113.628 91.9627 113.717 91.7433 113.894 91.566C114.071 91.3887 114.286 91.3 114.538 91.3C114.79 91.3 115.005 91.3887 115.182 91.566C115.359 91.7433 115.448 91.9627 115.448 92.224C115.448 92.476 115.359 92.6907 115.182 92.868C115.005 93.0453 114.79 93.134 114.538 93.134Z" fill="white" fill-opacity="0.5"/>
<path d="M127.89 90.376H126.56V89.2H129.29V99H127.89V90.376ZM136.1 96.76H130.962V95.738L135.792 89.2H137.486V95.57H138.83V96.76H137.486V99H136.1V96.76ZM136.128 95.57V90.642L132.558 95.57H136.128ZM146.787 89.2V90.376H142.055V93.302C142.251 93.0313 142.535 92.812 142.909 92.644C143.282 92.476 143.707 92.392 144.183 92.392C144.789 92.392 145.298 92.4947 145.709 92.7C146.119 92.9053 146.451 93.1713 146.703 93.498C146.964 93.8247 147.151 94.1793 147.263 94.562C147.384 94.9353 147.445 95.2947 147.445 95.64C147.445 96.2747 147.309 96.8533 147.039 97.376C146.777 97.8987 146.385 98.3187 145.863 98.636C145.34 98.944 144.705 99.098 143.959 99.098C143.287 99.098 142.699 98.9813 142.195 98.748C141.7 98.5053 141.303 98.1787 141.005 97.768C140.715 97.348 140.529 96.872 140.445 96.34H141.803C141.924 96.8253 142.171 97.208 142.545 97.488C142.927 97.7587 143.403 97.894 143.973 97.894C144.439 97.894 144.827 97.8007 145.135 97.614C145.443 97.4273 145.667 97.1707 145.807 96.844C145.956 96.508 146.031 96.116 146.031 95.668C146.031 95.0147 145.853 94.506 145.499 94.142C145.144 93.778 144.64 93.596 143.987 93.596C143.492 93.596 143.072 93.7127 142.727 93.946C142.381 94.1793 142.134 94.4967 141.985 94.898H140.669V89.2H146.787ZM154.543 92H155.747V97.852C155.747 98.6733 155.551 99.378 155.159 99.966C154.767 100.554 154.202 101.007 153.465 101.324C152.737 101.641 151.855 101.8 150.819 101.8L150.609 100.638C151.86 100.61 152.807 100.358 153.451 99.882C154.095 99.4153 154.417 98.7387 154.417 97.852V97.782L154.571 97.796C154.347 98.1507 154.025 98.4587 153.605 98.72C153.194 98.972 152.681 99.098 152.065 99.098C151.44 99.098 150.884 98.9487 150.399 98.65C149.923 98.3513 149.55 97.9313 149.279 97.39C149.018 96.8487 148.887 96.2187 148.887 95.5C148.887 94.7813 149.018 94.1513 149.279 93.61C149.55 93.0687 149.923 92.6487 150.399 92.35C150.884 92.0513 151.44 91.902 152.065 91.902C152.448 91.902 152.788 91.9533 153.087 92.056C153.395 92.1587 153.661 92.2987 153.885 92.476C154.109 92.644 154.296 92.8353 154.445 93.05L154.543 92ZM150.301 95.5C150.301 96.2187 150.488 96.7973 150.861 97.236C151.244 97.6747 151.752 97.894 152.387 97.894C152.76 97.894 153.101 97.8007 153.409 97.614C153.717 97.418 153.96 97.1427 154.137 96.788C154.324 96.424 154.417 95.9947 154.417 95.5C154.417 94.996 154.324 94.5667 154.137 94.212C153.96 93.8573 153.712 93.5867 153.395 93.4C153.087 93.204 152.751 93.106 152.387 93.106C151.752 93.106 151.244 93.3253 150.861 93.764C150.488 94.2027 150.301 94.7813 150.301 95.5Z" fill="#F5F5F5"/>
<path d="M111.89 237.376H110.56V236.2H113.29V246H111.89V237.376ZM120.1 243.76H114.962V242.738L119.792 236.2H121.486V242.57H122.83V243.76H121.486V246H120.1V243.76ZM120.128 242.57V237.642L116.558 242.57H120.128ZM132.26 236.2H133.66V243.298C133.66 243.858 133.539 244.348 133.296 244.768C133.054 245.188 132.722 245.515 132.302 245.748C131.882 245.981 131.397 246.098 130.846 246.098C130.165 246.098 129.6 245.935 129.152 245.608C128.704 245.272 128.396 244.805 128.228 244.208L129.418 243.802C129.484 244.017 129.577 244.208 129.698 244.376C129.82 244.544 129.974 244.679 130.16 244.782C130.356 244.875 130.585 244.922 130.846 244.922C131.164 244.922 131.425 244.847 131.63 244.698C131.836 244.549 131.99 244.357 132.092 244.124C132.204 243.881 132.26 243.625 132.26 243.354V236.2ZM141.565 246H140.361L140.263 245.174C140.039 245.473 139.754 245.701 139.409 245.86C139.073 246.019 138.695 246.098 138.275 246.098C137.734 246.098 137.262 245.986 136.861 245.762C136.46 245.529 136.147 245.193 135.923 244.754C135.708 244.306 135.601 243.751 135.601 243.088V239H136.931V242.92C136.931 243.564 137.062 244.054 137.323 244.39C137.594 244.726 138 244.894 138.541 244.894C139.073 244.894 139.488 244.721 139.787 244.376C140.095 244.031 140.249 243.517 140.249 242.836V239H141.565V246ZM143.561 235.92H144.877V246H143.561V235.92Z" fill="#F5F5F5"/>
<path d="M126 112.5V230.5" stroke="#C1C1C1" stroke-width="2"/>
</svg>
