<svg width="84" height="84" viewBox="0 0 84 84" fill="none" xmlns="http://www.w3.org/2000/svg">
<path d="M26.88 63L42 47.88L57.12 63L63 57.12L47.88 42L63 26.88L57.12 21L42 36.12L26.88 21L21 26.88L36.12 42L21 57.12L26.88 63ZM42 84C36.19 84 30.73 82.8968 25.62 80.6904C20.51 78.484 16.065 75.4922 12.285 71.715C8.505 67.9378 5.5132 63.4928 3.3096 58.38C1.10601 53.2672 0.00280531 47.8072 5.31645e-06 42C-0.00279468 36.1928 1.1004 30.7328 3.3096 25.62C5.5188 20.5072 8.5106 16.0622 12.285 12.285C16.0594 8.5078 20.5044 5.516 25.62 3.3096C30.7356 1.1032 36.1956 0 42 0C47.8044 0 53.2644 1.1032 58.38 3.3096C63.4956 5.516 67.9406 8.5078 71.715 12.285C75.4894 16.0622 78.4826 20.5072 80.6946 25.62C82.9066 30.7328 84.0084 36.1928 84 42C83.9916 47.8072 82.8884 53.2672 80.6904 58.38C78.4924 63.4928 75.5006 67.9378 71.715 71.715C67.9294 75.4922 63.4844 78.4854 58.38 80.6946C53.2756 82.9038 47.8156 84.0056 42 84Z" fill="#E04E4E"/>
</svg>
